M48
; DRILL file {KiCad 8.0.3-8.0.3-0~ubuntu20.04.1} date 2024-09-26T03:45:14-0300
; FORMAT={-:-/ absolute / metric / decimal}
; #@! TF.CreationDate,2024-09-26T03:45:14-03:00
; #@! TF.GenerationSoftware,Kicad,Pcbnew,8.0.3-8.0.3-0~ubuntu20.04.1
; #@! TF.FileFunction,Plated,1,4,PTH
FMAT,2
METRIC
; #@! TA.AperFunction,Plated,PTH,ViaDrill
T1C0.300
; #@! TA.AperFunction,Plated,PTH,ViaDrill
T2C0.400
; #@! TA.AperFunction,Plated,PTH,ComponentDrill
T3C0.800
; #@! TA.AperFunction,Plated,PTH,ComponentDrill
T4C1.000
; #@! TA.AperFunction,Plated,PTH,ComponentDrill
T5C1.100
; #@! TA.AperFunction,Plated,PTH,ComponentDrill
T6C1.200
%
G90
G05
T1
X30.16Y-119.9
X30.33Y-138.35
X30.38Y-103.48
X30.44Y-87.49
X33.05Y-121.14
X33.36Y-106.05
X33.63Y-123.48
X33.74Y-107.34
X33.91Y-76.3
X33.95Y-90.84
X34.0Y-138.05
X35.09Y-67.28
X35.09Y-140.34
X36.0Y-67.44
X36.2Y-59.8
X36.3Y-142.29
X36.7Y-149.29
X36.94Y-66.67
X36.95Y-76.13
X37.12Y-109.24
X37.16Y-125.57
X38.64Y-93.2
X38.67Y-141.68
X39.9Y-64.773
X39.92Y-130.743
X39.988Y-114.233
X40.0Y-147.263
X40.195Y-75.8
X40.2Y-59.2
X40.3Y-107.05
X40.66Y-90.91
X40.76Y-126.01
X40.83Y-97.928
X40.83Y-142.32
X41.21Y-81.512
X41.295Y-78.2
X41.3Y-61.6
X41.301Y-94.784
X41.32Y-127.57
X41.388Y-111.06
X41.4Y-144.09
X44.102Y-78.149
X44.109Y-94.733
X44.127Y-127.519
X44.195Y-111.009
X44.207Y-144.039
X44.47Y-61.67
X45.655Y-62.645
X45.656Y-95.829
X45.695Y-76.5
X45.7Y-59.9
X45.701Y-93.084
X45.72Y-125.87
X45.788Y-109.36
X45.795Y-82.8
X45.8Y-66.2
X45.8Y-142.39
X45.801Y-99.384
X45.82Y-132.17
X45.888Y-115.66
X45.895Y-79.0
X45.9Y-148.69
X45.92Y-128.37
X45.988Y-111.86
X46.0Y-144.89
X46.195Y-80.0
X46.201Y-96.584
X46.22Y-129.37
X46.24Y-63.66
X46.288Y-112.86
X46.3Y-145.89
X46.395Y-81.3
X46.4Y-64.7
X46.401Y-97.884
X46.42Y-130.67
X46.488Y-114.16
X46.5Y-147.19
X47.33Y-86.21
X47.52Y-135.79
X48.025Y-70.4
X48.026Y-103.584
X48.113Y-119.86
X48.245Y-83.175
X48.25Y-66.575
X48.251Y-99.759
X48.27Y-132.545
X48.35Y-149.065
X48.8Y-152.75
X48.9Y-115.06
X48.995Y-77.5
X49.0Y-60.9
X49.001Y-94.084
X49.02Y-126.87
X49.05Y-109.43
X49.095Y-73.9
X49.1Y-57.3
X49.1Y-143.39
X49.101Y-90.484
X49.12Y-123.27
X49.188Y-106.76
X49.2Y-139.79
X49.622Y-79.975
X49.627Y-63.375
X49.628Y-96.559
X49.647Y-129.345
X49.715Y-112.835
X49.727Y-145.865
X50.45Y-154.7
X52.17Y-77.25
X52.175Y-60.65
X52.176Y-93.834
X52.195Y-126.62
X52.263Y-109.743
X52.275Y-143.14
X52.551Y-78.506
X52.556Y-61.906
X52.557Y-95.09
X52.576Y-127.876
X52.656Y-144.396
X52.76Y-111.63
X52.85Y-122.43
X52.855Y-85.66
X52.86Y-69.06
X52.861Y-102.244
X52.88Y-135.03
X52.948Y-118.52
X52.96Y-151.55
X52.995Y-87.81
X53.0Y-71.21
X53.001Y-104.394
X53.02Y-137.18
X53.095Y-79.1
X53.1Y-62.5
X53.101Y-95.684
X53.12Y-128.47
X53.2Y-144.99
X53.67Y-139.9
X53.889Y-112.661
X54.195Y-74.15
X54.2Y-57.55
X54.201Y-90.734
X54.22Y-123.52
X54.288Y-107.01
X56.7Y-109.16
X57.022Y-76.3
X57.027Y-59.7
X57.047Y-125.67
X57.127Y-142.19
X57.16Y-93.23
X57.495Y-77.6
X57.495Y-82.6
X57.5Y-61.0
X57.5Y-66.0
X57.501Y-94.184
X57.52Y-126.97
X57.52Y-131.97
X57.588Y-115.46
X57.6Y-143.49
X57.6Y-148.49
X57.645Y-73.9
X57.645Y-78.9
X57.65Y-57.3
X57.65Y-62.3
X57.651Y-90.484
X57.651Y-95.484
X57.67Y-123.27
X57.67Y-128.27
X57.738Y-106.76
X57.738Y-111.76
X57.75Y-139.79
X57.75Y-144.79
X58.125Y-109.516
X58.31Y-100.79
X58.592Y-84.71
X58.594Y-86.355
X58.597Y-68.11
X58.599Y-69.755
X58.601Y-102.939
X58.617Y-134.08
X58.619Y-135.725
X58.685Y-117.57
X58.691Y-119.215
X58.699Y-152.245
X58.755Y-87.87
X58.76Y-71.27
X58.761Y-104.454
X58.78Y-137.24
X58.848Y-120.73
X58.86Y-153.76
X58.94Y-98.9
X59.5Y-163.0
X59.595Y-74.2
X59.6Y-57.6
X59.601Y-90.784
X59.62Y-123.57
X59.688Y-107.06
X59.7Y-140.09
X62.005Y-87.41
X62.01Y-70.81
X62.011Y-103.994
X62.03Y-136.78
X62.11Y-153.3
X63.288Y-121.024
X63.415Y-87.29
X63.42Y-70.69
X63.421Y-103.874
X63.44Y-136.66
X63.49Y-120.25
X63.52Y-153.18
X64.855Y-75.02
X64.86Y-58.42
X64.861Y-91.604
X64.88Y-124.39
X64.915Y-81.55
X64.92Y-64.95
X64.921Y-98.134
X64.945Y-78.9
X64.948Y-107.88
X64.95Y-62.3
X64.951Y-95.484
X64.96Y-131.55
X64.96Y-140.91
X64.97Y-128.27
X65.001Y-82.661
X65.006Y-66.061
X65.007Y-99.245
X65.008Y-114.41
X65.02Y-147.44
X65.03Y-132.42
X65.038Y-111.76
X65.05Y-144.79
X65.094Y-115.521
X65.106Y-148.551
X65.265Y-83.91
X65.27Y-67.31
X65.271Y-100.494
X65.29Y-133.28
X65.358Y-116.77
X65.37Y-149.8
X66.025Y-87.084
X66.03Y-70.484
X66.031Y-103.668
X66.05Y-136.454
X66.118Y-119.944
X66.13Y-152.974
X66.595Y-75.9
X66.6Y-59.3
X66.601Y-92.484
X66.62Y-125.27
X66.688Y-108.76
X66.7Y-141.79
X66.835Y-168.99
X68.9Y-173.48
X69.205Y-83.55
X69.21Y-66.95
X69.211Y-100.134
X69.23Y-132.92
X69.298Y-116.41
X69.31Y-149.44
X69.845Y-80.0
X69.85Y-63.4
X69.851Y-96.584
X69.87Y-129.37
X69.938Y-112.86
X69.95Y-145.89
X70.175Y-88.74
X70.18Y-72.14
X70.181Y-105.324
X70.2Y-138.11
X70.215Y-83.29
X70.22Y-66.69
X70.221Y-99.874
X70.24Y-132.66
X70.268Y-121.6
X70.28Y-154.63
X70.308Y-116.15
X70.32Y-149.18
X70.785Y-87.1
X70.79Y-70.5
X70.791Y-103.684
X70.801Y-75.506
X70.806Y-58.906
X70.807Y-92.09
X70.81Y-136.47
X70.826Y-124.876
X70.878Y-119.96
X70.89Y-152.99
X70.894Y-108.366
X70.906Y-141.396
X71.95Y-87.134
X71.955Y-70.534
X71.956Y-103.718
X71.975Y-136.504
X72.043Y-119.994
X72.055Y-153.024
X72.54Y-82.43
X72.545Y-65.83
X72.546Y-99.014
X72.565Y-131.8
X72.633Y-115.29
X72.645Y-148.32
X74.82Y-74.325
X74.825Y-57.725
X74.826Y-90.909
X74.845Y-123.695
X74.913Y-107.185
X74.925Y-140.215
X74.945Y-75.9
X74.95Y-59.3
X74.951Y-92.484
X74.97Y-125.27
X75.038Y-108.76
X75.05Y-141.79
X75.89Y-162.23
X76.301Y-83.819
X76.306Y-67.219
X76.307Y-100.403
X76.326Y-133.189
X76.393Y-116.679
X76.406Y-149.709
X76.435Y-81.62
X76.44Y-65.02
X76.441Y-98.204
X76.46Y-130.99
X76.528Y-114.48
X76.54Y-147.51
X77.605Y-83.35
X77.61Y-66.75
X77.611Y-99.934
X77.63Y-132.72
X77.698Y-116.21
X77.71Y-149.24
X79.195Y-81.64
X79.2Y-65.04
X79.201Y-98.224
X79.22Y-131.01
X79.288Y-114.5
X79.3Y-147.53
X79.655Y-87.084
X79.66Y-70.484
X79.661Y-103.668
X79.68Y-136.454
X79.748Y-119.944
X79.76Y-152.974
X81.316Y-83.391
X81.321Y-66.791
X81.322Y-99.975
X81.341Y-132.761
X81.409Y-116.251
X81.421Y-149.281
X81.505Y-87.084
X81.51Y-70.484
X81.511Y-103.668
X81.53Y-136.454
X81.598Y-119.944
X81.61Y-152.974
X81.685Y-74.31
X81.69Y-57.71
X81.691Y-90.894
X81.71Y-123.68
X81.778Y-107.17
X81.79Y-140.2
X82.95Y-161.55
X83.645Y-79.75
X83.65Y-63.15
X83.651Y-96.334
X83.67Y-129.12
X83.738Y-112.61
X83.75Y-145.64
X85.295Y-83.4
X85.3Y-66.8
X85.301Y-99.984
X85.32Y-132.77
X85.345Y-75.87
X85.35Y-59.27
X85.351Y-92.454
X85.37Y-125.24
X85.388Y-116.26
X85.4Y-149.29
X85.438Y-108.73
X85.45Y-141.76
X85.825Y-88.74
X85.83Y-72.14
X85.831Y-105.324
X85.85Y-138.11
X85.885Y-81.86
X85.89Y-65.26
X85.891Y-98.444
X85.91Y-131.23
X85.918Y-121.6
X85.93Y-154.63
X85.978Y-114.72
X85.99Y-147.75
X85.995Y-87.1
X86.0Y-70.5
X86.001Y-103.684
X86.02Y-136.47
X86.088Y-119.96
X86.1Y-152.99
X86.775Y-81.29
X86.78Y-64.69
X86.781Y-97.874
X86.8Y-130.66
X86.868Y-114.15
X86.88Y-147.18
X87.165Y-76.04
X87.17Y-59.44
X87.171Y-92.624
X87.19Y-125.41
X87.258Y-108.9
X87.27Y-141.93
X87.515Y-87.1
X87.52Y-70.5
X87.521Y-103.684
X87.525Y-83.357
X87.53Y-66.757
X87.531Y-99.941
X87.54Y-136.47
X87.55Y-132.727
X87.608Y-119.96
X87.618Y-116.217
X87.62Y-152.99
X87.63Y-149.247
X89.935Y-81.5
X89.94Y-64.9
X89.941Y-98.084
X89.96Y-130.87
X90.028Y-114.36
X90.04Y-147.39
X90.2Y-108.73
X90.33Y-75.66
X90.4Y-146.02
X90.41Y-112.86
X90.462Y-83.693
X90.467Y-67.093
X90.469Y-100.277
X90.487Y-133.063
X90.555Y-116.553
X90.567Y-149.583
X91.28Y-141.55
X91.33Y-65.36
X91.35Y-131.33
X91.418Y-114.82
X91.435Y-129.93
X91.86Y-66.36
X91.861Y-99.544
X91.94Y-151.15
X91.97Y-62.06
X92.08Y-125.12
X92.13Y-82.36
X92.441Y-92.974
X92.7Y-59.29
X92.855Y-83.745
X92.86Y-67.145
X92.861Y-100.329
X92.88Y-133.115
X92.905Y-78.07
X92.91Y-61.47
X92.911Y-94.654
X92.93Y-127.44
X92.935Y-79.4
X92.937Y-146.733
X92.941Y-95.984
X92.948Y-116.605
X92.96Y-128.77
X92.998Y-110.93
X93.01Y-143.96
X93.028Y-112.26
X93.04Y-145.29
X93.732Y-82.696
X94.02Y-99.09
X94.29Y-75.555
X94.79Y-62.68
X94.8Y-124.54
X94.81Y-108.34
X94.85Y-128.59
X94.89Y-92.07
X95.04Y-112.06
X95.29Y-141.09
X95.445Y-79.49
X95.52Y-96.26
X95.672Y-62.679
X96.105Y-145.065
X96.47Y-60.08
X101.09Y-71.68
X103.16Y-72.94
X103.5Y-89.0
X104.05Y-87.594
X104.49Y-91.96
X104.99Y-86.967
X105.35Y-89.2
X105.703Y-124.357
X105.728Y-136.148
X105.89Y-92.02
X105.97Y-77.77
X106.32Y-136.79
X106.6Y-124.14
X106.78Y-86.34
X107.24Y-137.05
X107.5Y-116.5
X107.506Y-124.602
X107.85Y-91.36
X107.94Y-123.93
X107.954Y-85.613
X108.72Y-137.05
X109.0Y-141.5
X110.6Y-121.25
X110.84Y-83.63
X110.98Y-93.35
X111.0Y-118.5
X111.01Y-80.63
X111.39Y-90.62
X111.67Y-121.18
X111.69Y-130.08
X111.7Y-132.75
X111.723Y-92.66
X111.92Y-135.409
X112.1Y-97.27
X112.245Y-137.165
X112.352Y-89.412
X112.48Y-117.75
X112.85Y-138.62
X112.86Y-120.93
X113.04Y-75.09
X113.24Y-135.8
X113.46Y-124.53
X113.8Y-85.71
X114.41Y-135.85
X114.53Y-132.81
X114.8Y-124.51
X114.81Y-140.22
X115.29Y-121.38
X116.2Y-135.76
X116.29Y-124.42
X116.51Y-83.6
X117.06Y-135.52
X117.14Y-127.88
X117.28Y-124.39
X117.33Y-77.84
X117.55Y-117.96
X117.56Y-129.38
X117.641Y-125.691
X117.92Y-130.26
X118.0Y-128.489
X118.06Y-121.57
X118.26Y-119.82
X118.29Y-131.21
X118.32Y-124.88
X118.56Y-135.54
X118.84Y-124.04
X119.11Y-121.9
X120.05Y-82.56
X120.16Y-87.34
X120.24Y-133.14
X120.781Y-73.839
X121.301Y-124.131
X121.84Y-95.57
X122.307Y-128.392
X123.29Y-132.03
X123.44Y-135.68
X123.99Y-131.183
X124.61Y-135.73
X124.78Y-68.64
X125.89Y-64.78
X125.92Y-88.81
X126.85Y-73.62
X127.002Y-119.92
X127.11Y-129.73
X127.97Y-120.65
X128.11Y-130.03
X130.82Y-81.74
X135.95Y-134.5
X136.11Y-135.743
X136.38Y-113.27
X137.23Y-69.59
X137.36Y-112.47
X139.72Y-104.27
X141.168Y-102.776
X141.87Y-76.53
X142.24Y-136.16
X142.48Y-101.93
T2
X29.915Y-150.72
X30.82Y-78.0
X31.173Y-151.927
X31.75Y-74.7
X33.72Y-87.8
T3
X132.609Y-150.629
X132.609Y-152.629
X134.609Y-150.629
X134.609Y-152.629
X136.521Y-164.869
X136.609Y-150.629
X136.609Y-152.629
X139.061Y-164.869
T4
X32.505Y-79.49
X32.505Y-81.99
X32.54Y-111.53
X32.54Y-114.03
X32.55Y-65.01
X32.55Y-67.51
X32.55Y-95.27
X32.55Y-97.77
X32.55Y-128.48
X32.55Y-130.98
X32.55Y-144.38
X32.55Y-146.88
X38.11Y-172.5
X40.61Y-172.5
X47.24Y-172.5
X49.74Y-172.5
X57.23Y-172.5
X59.73Y-172.5
X65.53Y-161.69
X65.59Y-165.32
X68.07Y-161.69
X68.13Y-165.32
X70.61Y-161.69
X70.67Y-165.32
X78.08Y-168.53
X80.62Y-168.53
X86.792Y-160.81
X88.58Y-171.055
X89.332Y-160.81
X91.08Y-171.055
X91.873Y-160.81
X93.58Y-171.055
X96.08Y-171.055
X101.92Y-171.055
X101.98Y-163.33
X104.42Y-171.055
X104.48Y-163.33
X106.92Y-171.055
X106.98Y-163.33
X108.84Y-62.465
X109.42Y-171.055
X109.48Y-163.33
X111.38Y-62.465
X113.92Y-62.465
X115.35Y-163.295
X115.35Y-171.055
X117.85Y-163.295
X117.85Y-171.055
X119.0Y-62.465
X120.35Y-163.295
X120.35Y-171.055
X121.54Y-62.465
X122.85Y-163.295
X122.85Y-171.055
X127.165Y-57.5
X128.83Y-170.44
X128.83Y-172.98
X129.705Y-57.5
X131.37Y-170.44
X131.37Y-172.98
X133.91Y-170.44
X133.91Y-172.98
X134.575Y-57.5
X135.745Y-92.295
X135.745Y-94.835
X135.745Y-97.375
X137.115Y-57.5
X138.285Y-92.295
X138.285Y-94.835
X138.285Y-97.375
X143.95Y-89.84
X143.95Y-92.38
X143.95Y-94.92
X143.95Y-97.46
X146.49Y-89.84
X146.49Y-92.38
X146.49Y-94.92
X146.49Y-97.46
T5
X130.171Y-107.179
X130.171Y-109.719
X130.171Y-112.259
X130.171Y-114.799
X130.171Y-117.339
X130.171Y-119.879
X130.171Y-122.419
X130.171Y-124.959
X130.171Y-127.499
X130.171Y-130.039
X130.171Y-132.579
X130.171Y-135.119
X130.171Y-137.659
X130.171Y-140.199
X130.171Y-142.739
X130.171Y-145.279
X130.171Y-147.819
X130.171Y-150.359
X130.171Y-152.899
X130.171Y-155.439
X130.171Y-157.979
X130.171Y-160.519
X130.171Y-163.059
X130.171Y-165.599
X132.711Y-119.879
X132.711Y-163.059
X135.251Y-119.879
X137.791Y-119.879
X140.331Y-119.879
X142.36Y-149.14
X142.36Y-151.68
X142.36Y-154.22
X142.36Y-156.76
X142.36Y-159.3
X142.871Y-119.879
X145.411Y-107.179
X145.411Y-109.719
X145.411Y-112.259
X145.411Y-114.799
X145.411Y-117.339
X145.411Y-119.879
X145.411Y-122.419
X145.411Y-124.959
X145.411Y-127.499
X145.411Y-130.039
X145.411Y-132.579
X145.411Y-135.119
X145.411Y-137.659
X145.411Y-140.199
X145.411Y-142.739
X145.411Y-145.279
X145.411Y-147.819
X145.411Y-150.359
X145.411Y-152.899
X145.411Y-155.439
X145.411Y-157.979
X145.411Y-160.519
X145.411Y-163.059
X145.411Y-165.599
T6
X145.2Y-63.58
X145.2Y-68.58
M30
