G04 #@! TF.GenerationSoftware,KiCad,Pcbnew,8.0.3-8.0.3-0~ubuntu20.04.1*
G04 #@! TF.CreationDate,2024-09-26T03:44:41-03:00*
G04 #@! TF.ProjectId,EEG_board,4545475f-626f-4617-9264-2e6b69636164,rev?*
G04 #@! TF.SameCoordinates,Original*
G04 #@! TF.FileFunction,Copper,L3,Inr*
G04 #@! TF.FilePolarity,Positive*
%FSLAX46Y46*%
G04 Gerber Fmt 4.6, Leading zero omitted, Abs format (unit mm)*
G04 Created by KiCad (PCBNEW 8.0.3-8.0.3-0~ubuntu20.04.1) date 2024-09-26 03:44:41*
%MOMM*%
%LPD*%
G01*
G04 APERTURE LIST*
G04 Aperture macros list*
%AMRoundRect*
0 Rectangle with rounded corners*
0 $1 Rounding radius*
0 $2 $3 $4 $5 $6 $7 $8 $9 X,Y pos of 4 corners*
0 Add a 4 corners polygon primitive as box body*
4,1,4,$2,$3,$4,$5,$6,$7,$8,$9,$2,$3,0*
0 Add four circle primitives for the rounded corners*
1,1,$1+$1,$2,$3*
1,1,$1+$1,$4,$5*
1,1,$1+$1,$6,$7*
1,1,$1+$1,$8,$9*
0 Add four rect primitives between the rounded corners*
20,1,$1+$1,$2,$3,$4,$5,0*
20,1,$1+$1,$4,$5,$6,$7,0*
20,1,$1+$1,$6,$7,$8,$9,0*
20,1,$1+$1,$8,$9,$2,$3,0*%
G04 Aperture macros list end*
G04 #@! TA.AperFunction,ComponentPad*
%ADD10C,1.800000*%
G04 #@! TD*
G04 #@! TA.AperFunction,ComponentPad*
%ADD11RoundRect,0.250000X0.600000X0.750000X-0.600000X0.750000X-0.600000X-0.750000X0.600000X-0.750000X0*%
G04 #@! TD*
G04 #@! TA.AperFunction,ComponentPad*
%ADD12O,1.700000X2.000000*%
G04 #@! TD*
G04 #@! TA.AperFunction,ComponentPad*
%ADD13R,1.700000X1.700000*%
G04 #@! TD*
G04 #@! TA.AperFunction,ComponentPad*
%ADD14O,1.700000X1.700000*%
G04 #@! TD*
G04 #@! TA.AperFunction,ComponentPad*
%ADD15R,1.600000X1.600000*%
G04 #@! TD*
G04 #@! TA.AperFunction,ComponentPad*
%ADD16C,1.600000*%
G04 #@! TD*
G04 #@! TA.AperFunction,ComponentPad*
%ADD17R,1.300000X1.300000*%
G04 #@! TD*
G04 #@! TA.AperFunction,ComponentPad*
%ADD18C,1.300000*%
G04 #@! TD*
G04 #@! TA.AperFunction,ComponentPad*
%ADD19O,4.000000X2.000000*%
G04 #@! TD*
G04 #@! TA.AperFunction,ViaPad*
%ADD20C,0.600000*%
G04 #@! TD*
G04 #@! TA.AperFunction,ViaPad*
%ADD21C,0.800000*%
G04 #@! TD*
G04 #@! TA.AperFunction,Conductor*
%ADD22C,0.609600*%
G04 #@! TD*
G04 #@! TA.AperFunction,Conductor*
%ADD23C,0.254000*%
G04 #@! TD*
G04 #@! TA.AperFunction,Conductor*
%ADD24C,0.250000*%
G04 #@! TD*
G04 APERTURE END LIST*
D10*
X121540000Y-62465000D03*
X119000000Y-62465000D03*
X113920000Y-62465000D03*
X111380000Y-62465000D03*
X108840000Y-62465000D03*
D11*
X40610000Y-172500000D03*
D12*
X38110000Y-172500000D03*
D13*
X128830000Y-172980000D03*
D14*
X128830000Y-170440000D03*
X131370000Y-172980000D03*
X131370000Y-170440000D03*
X133910000Y-172980000D03*
X133910000Y-170440000D03*
D10*
X32550000Y-146880000D03*
X32550000Y-144380000D03*
X32540000Y-114030000D03*
X32540000Y-111530000D03*
D13*
X135745000Y-92295000D03*
D14*
X138285000Y-92295000D03*
X135745000Y-94835000D03*
X138285000Y-94835000D03*
X135745000Y-97375000D03*
X138285000Y-97375000D03*
D13*
X70610000Y-161690000D03*
D14*
X68070000Y-161690000D03*
X65530000Y-161690000D03*
D10*
X101920000Y-171055000D03*
X104420000Y-171055000D03*
X106920000Y-171055000D03*
X109420000Y-171055000D03*
D15*
X145410800Y-165599200D03*
D16*
X145410800Y-163059200D03*
X145410800Y-160519200D03*
X145410800Y-157979200D03*
X145410800Y-155439200D03*
X145410800Y-152899200D03*
X145410800Y-150359200D03*
X145410800Y-147819200D03*
X145410800Y-145279200D03*
X145410800Y-142739200D03*
X145410800Y-140199200D03*
X145410800Y-137659200D03*
X145410800Y-135119200D03*
X145410800Y-132579200D03*
X145410800Y-130039200D03*
X145410800Y-127499200D03*
X145410800Y-124959200D03*
X145410800Y-122419200D03*
X145410800Y-119879200D03*
X145410800Y-117339200D03*
X145410800Y-114799200D03*
X145410800Y-112259200D03*
X145410800Y-109719200D03*
X145410800Y-107179200D03*
X130170800Y-107179200D03*
X130170800Y-109719200D03*
X130170800Y-112259200D03*
X130170800Y-114799200D03*
X130170800Y-117339200D03*
X130170800Y-119879200D03*
X130170800Y-122419200D03*
X130170800Y-124959200D03*
X130170800Y-127499200D03*
X130170800Y-130039200D03*
X130170800Y-132579200D03*
X130170800Y-135119200D03*
X130170800Y-137659200D03*
X130170800Y-140199200D03*
X130170800Y-142739200D03*
X130170800Y-145279200D03*
X130170800Y-147819200D03*
X130170800Y-150359200D03*
X130170800Y-152899200D03*
X130170800Y-155439200D03*
X130170800Y-157979200D03*
X130170800Y-160519200D03*
X130170800Y-163059200D03*
X130170800Y-165599200D03*
X132710800Y-163059200D03*
X142870800Y-119879200D03*
X140330800Y-119879200D03*
X137790800Y-119879200D03*
X135250800Y-119879200D03*
X132710800Y-119879200D03*
D15*
X142360000Y-159300000D03*
D16*
X142360000Y-156760000D03*
X142360000Y-154220000D03*
X142360000Y-151680000D03*
X142360000Y-149140000D03*
D17*
X132609200Y-152629200D03*
D18*
X134609200Y-152629200D03*
X136609200Y-152629200D03*
X136609200Y-150629200D03*
X134609200Y-150629200D03*
X132609200Y-150629200D03*
X136520800Y-164869200D03*
X139060800Y-164869200D03*
D13*
X127165000Y-57500000D03*
D14*
X129705000Y-57500000D03*
D11*
X49740000Y-172500000D03*
D12*
X47240000Y-172500000D03*
D10*
X115350000Y-171055000D03*
X117850000Y-171055000D03*
X120350000Y-171055000D03*
X122850000Y-171055000D03*
D19*
X145200000Y-63580000D03*
X145200000Y-68580000D03*
D13*
X143950000Y-89840000D03*
D14*
X146490000Y-89840000D03*
X143950000Y-92380000D03*
X146490000Y-92380000D03*
X143950000Y-94920000D03*
X146490000Y-94920000D03*
X143950000Y-97460000D03*
X146490000Y-97460000D03*
D10*
X88580000Y-171055000D03*
X91080000Y-171055000D03*
X93580000Y-171055000D03*
X96080000Y-171055000D03*
D13*
X134575000Y-57500000D03*
D14*
X137115000Y-57500000D03*
D11*
X59730000Y-172500000D03*
D12*
X57230000Y-172500000D03*
D10*
X115350000Y-163295000D03*
X117850000Y-163295000D03*
X120350000Y-163295000D03*
X122850000Y-163295000D03*
D13*
X91872500Y-160809999D03*
D14*
X89332500Y-160809999D03*
X86792500Y-160809999D03*
D10*
X32550000Y-130980000D03*
X32550000Y-128480000D03*
X32550000Y-97770000D03*
X32550000Y-95270000D03*
D13*
X65590000Y-165320000D03*
D14*
X68130000Y-165320000D03*
X70670000Y-165320000D03*
D10*
X101980000Y-163330000D03*
X104480000Y-163330000D03*
X106980000Y-163330000D03*
X109480000Y-163330000D03*
X32550000Y-67510000D03*
X32550000Y-65010000D03*
X32505000Y-81990000D03*
X32505000Y-79490000D03*
D13*
X80620000Y-168530000D03*
D14*
X78080000Y-168530000D03*
D20*
X114530000Y-132810000D03*
X85387928Y-116260000D03*
X48995000Y-77500000D03*
X92960000Y-128770000D03*
X85350000Y-59270000D03*
X117330000Y-77840000D03*
X59687928Y-107060000D03*
X70800932Y-75506310D03*
X70893860Y-108366310D03*
X70825932Y-124876310D03*
X70807396Y-92090132D03*
X49020000Y-126870000D03*
X91970000Y-62060000D03*
X49100000Y-143390000D03*
X69230000Y-132920000D03*
X33740000Y-107340000D03*
X59601464Y-90783822D03*
X59620000Y-123570000D03*
X35090000Y-67280000D03*
X35090000Y-140340000D03*
X33910000Y-76300000D03*
X85370000Y-125240000D03*
X59700000Y-140090000D03*
X93040000Y-145290000D03*
X49001464Y-94083822D03*
X85351464Y-92453822D03*
X105970000Y-77770000D03*
X59595000Y-74200000D03*
X85437928Y-108730000D03*
X85400000Y-149290000D03*
X85301464Y-99983822D03*
X69205000Y-83550000D03*
X69310000Y-149440000D03*
X85450000Y-141760000D03*
X33630000Y-123480000D03*
X69211464Y-100133822D03*
X70905932Y-141396310D03*
X85300000Y-66800000D03*
X69210000Y-66950000D03*
X93027928Y-112260000D03*
X49000000Y-60900000D03*
X92935000Y-79400000D03*
X70805932Y-58906310D03*
X59600000Y-57600000D03*
X92941464Y-95983822D03*
X85345000Y-75870000D03*
X33950000Y-90840000D03*
X85295000Y-83400000D03*
X69297928Y-116410000D03*
X49050000Y-109430000D03*
X85320000Y-132770000D03*
X46400000Y-64700000D03*
X69870000Y-129370000D03*
X94810000Y-108340000D03*
X53888964Y-112661036D03*
X87617928Y-116217000D03*
X91435052Y-129930000D03*
X94290000Y-75555000D03*
X38670000Y-141680000D03*
X91860000Y-66360000D03*
X53095000Y-79100000D03*
X91861464Y-99543822D03*
X79200000Y-65040000D03*
X70319860Y-149180140D03*
X90410000Y-112860000D03*
X53200000Y-144990000D03*
X70239860Y-132660140D03*
X90400000Y-146020000D03*
X87550000Y-132727000D03*
X87630000Y-149247000D03*
X36950000Y-76130000D03*
X92129800Y-82360000D03*
X69937928Y-112860000D03*
X87525000Y-83357000D03*
X70307788Y-116150140D03*
X87531464Y-99940822D03*
X70214860Y-83290140D03*
X69850000Y-63400000D03*
X69851464Y-96583822D03*
X95672431Y-62678616D03*
X70221324Y-99873962D03*
X79195000Y-81640000D03*
X46487928Y-114160000D03*
X79300000Y-147530000D03*
X45656464Y-95828822D03*
X79201464Y-98223822D03*
X45895000Y-79000000D03*
X94890000Y-92070000D03*
X94800000Y-124540000D03*
X70219860Y-66690140D03*
X37160000Y-125570000D03*
X46500000Y-147190000D03*
X79220000Y-131010000D03*
X46395000Y-81300000D03*
X95290000Y-141090000D03*
X53101464Y-95683822D03*
X69950000Y-145890000D03*
X46401464Y-97883822D03*
X45987928Y-111860000D03*
X38640000Y-93200000D03*
X45655000Y-62645000D03*
X36000000Y-67440000D03*
X87530000Y-66757000D03*
X46420000Y-130670000D03*
X46000000Y-144890000D03*
X37120000Y-109240000D03*
X69845000Y-80000000D03*
X79287928Y-114500000D03*
X53100000Y-62500000D03*
X45920000Y-128370000D03*
X53120000Y-128470000D03*
X115290000Y-121380000D03*
X106320000Y-136790000D03*
X106600000Y-124140000D03*
X105703487Y-124356513D03*
X105727890Y-136148465D03*
X107940000Y-123930000D03*
X108720000Y-137050000D03*
D21*
X29915200Y-150720000D03*
D20*
X30160000Y-119900000D03*
X30380000Y-103480000D03*
X107500000Y-116500000D03*
X112860000Y-120930000D03*
X114800000Y-124510000D03*
D21*
X31750000Y-74700000D03*
D20*
X30330000Y-138350000D03*
X113240000Y-135800000D03*
X58860000Y-153760000D03*
X111920277Y-135409360D03*
X58755000Y-87870000D03*
X58780000Y-137240000D03*
X58847928Y-120730000D03*
X66835000Y-168990000D03*
X58760000Y-71270000D03*
X30440000Y-87490000D03*
X103160000Y-72940000D03*
X82950000Y-161550000D03*
X111000000Y-118500000D03*
X58761464Y-104453822D03*
X107506297Y-124602240D03*
X107240000Y-137050000D03*
X33360000Y-106050000D03*
X114810000Y-140220000D03*
X53000000Y-71210000D03*
X111690000Y-130080000D03*
X50450000Y-154700000D03*
X75890000Y-162230000D03*
X113460000Y-124530000D03*
X112480000Y-117750000D03*
X111700000Y-132750000D03*
X101090000Y-71680000D03*
X118560000Y-135540000D03*
D21*
X33720000Y-87800000D03*
D20*
X52995000Y-87810000D03*
X68900000Y-173480000D03*
X34000000Y-138050000D03*
X33050000Y-121140000D03*
D21*
X31172735Y-151927265D03*
D20*
X52850000Y-122430000D03*
X113040000Y-75090000D03*
X53001464Y-104393822D03*
X116290000Y-124420000D03*
D21*
X30820000Y-78000000D03*
D20*
X114410000Y-135850000D03*
X53020000Y-137180000D03*
X137230000Y-69590000D03*
X130820000Y-81740000D03*
X81315857Y-83390857D03*
X77630000Y-132720000D03*
X81322321Y-99974679D03*
X58600854Y-102938622D03*
X65290000Y-133280000D03*
X90467312Y-67093080D03*
X116510000Y-83600000D03*
X65265000Y-83910000D03*
X77605000Y-83350000D03*
X90462312Y-83693080D03*
X77697928Y-116210000D03*
X111010000Y-80630000D03*
X65370000Y-149800000D03*
X77611464Y-99933822D03*
X81420857Y-149280857D03*
X90487312Y-133063080D03*
X90468776Y-100276902D03*
X65270000Y-67310000D03*
X58691059Y-119214800D03*
X77610000Y-66750000D03*
X121301305Y-124131305D03*
X65271464Y-100493822D03*
X58599390Y-69754800D03*
X90567312Y-149583080D03*
X141870000Y-76530000D03*
X117550000Y-117960000D03*
X81408785Y-116250857D03*
X124610000Y-135730000D03*
X120160000Y-87340000D03*
X121840000Y-95570000D03*
X112100000Y-97270000D03*
X58619390Y-135724800D03*
X81320857Y-66790857D03*
X81340857Y-132760857D03*
X125920000Y-88810000D03*
X120050000Y-82560000D03*
X58699390Y-152244800D03*
X58594390Y-86354800D03*
X118060000Y-121570000D03*
X90555240Y-116553080D03*
X77710000Y-149240000D03*
X65357928Y-116770000D03*
X142480000Y-101930000D03*
X127001600Y-119920000D03*
X112850000Y-138620000D03*
X110600000Y-121250000D03*
X111670000Y-121180000D03*
X112245396Y-137164604D03*
X142240000Y-136160000D03*
X117140000Y-127880000D03*
X123440000Y-135680000D03*
X128110000Y-130030000D03*
X118290000Y-131210000D03*
X123290000Y-132030000D03*
X117920000Y-130260000D03*
X127110000Y-129730000D03*
X117640636Y-125691221D03*
X127970000Y-120650000D03*
X123990000Y-131183000D03*
X117560000Y-129380000D03*
X118000396Y-128489359D03*
X118320000Y-124880000D03*
X118840000Y-124040000D03*
X118260000Y-119820000D03*
X70180000Y-72140000D03*
X85830000Y-72140000D03*
X106780000Y-86340000D03*
X62010000Y-70810000D03*
X136110000Y-135743000D03*
X136380000Y-113270000D03*
X137360000Y-112470000D03*
X135950000Y-134500000D03*
X85831464Y-105323822D03*
X105350000Y-89200000D03*
X62011464Y-103993822D03*
X70181464Y-105323822D03*
X70200000Y-138110000D03*
X110980000Y-93350000D03*
X62030000Y-136780000D03*
X85850000Y-138110000D03*
X66030000Y-70484000D03*
X107953755Y-85613000D03*
X63420000Y-70690000D03*
X81510000Y-70484000D03*
X66031464Y-103667822D03*
X81511464Y-103667822D03*
X63421464Y-103873822D03*
X103500000Y-89000000D03*
X81530000Y-136454000D03*
X63440000Y-136660000D03*
X111723000Y-92660000D03*
X66050000Y-136454000D03*
X62005000Y-87410000D03*
X104050000Y-87594000D03*
X70175000Y-88740000D03*
X85825000Y-88740000D03*
X70267928Y-121600000D03*
X85917928Y-121600000D03*
X105890000Y-92020000D03*
X63287577Y-121023970D03*
X70280000Y-154630000D03*
X85930000Y-154630000D03*
X62110000Y-153300000D03*
X112351643Y-89411643D03*
X104990000Y-86967000D03*
X63415000Y-87290000D03*
X81505000Y-87084000D03*
X66025000Y-87084000D03*
X104490000Y-91960000D03*
X63490000Y-120250000D03*
X81597928Y-119944000D03*
X66117928Y-119944000D03*
X64950000Y-62300000D03*
X57047000Y-125670000D03*
X44102236Y-78148896D03*
X52947928Y-118520000D03*
X90040000Y-147390000D03*
X92860000Y-67144800D03*
X92911464Y-94653822D03*
X48025000Y-70400000D03*
X71955000Y-70534138D03*
X45795000Y-82800000D03*
X47520000Y-135790000D03*
X83651464Y-96333822D03*
X70791464Y-103683822D03*
X57501464Y-94183822D03*
X44207236Y-144038896D03*
X49100000Y-57300000D03*
X122307320Y-128392113D03*
X86020000Y-136470000D03*
X91330000Y-65360000D03*
X52880000Y-135030000D03*
X95445000Y-79490000D03*
X96105000Y-145065000D03*
X45900000Y-148690000D03*
X57495000Y-77600000D03*
X71950000Y-87134138D03*
X76405558Y-149709442D03*
X92947928Y-116604800D03*
X46201464Y-96583822D03*
X76300558Y-83819442D03*
X83645000Y-79750000D03*
X76435000Y-81620000D03*
X76305558Y-67219442D03*
X87540000Y-136470000D03*
X83737928Y-112610000D03*
X46240000Y-63660000D03*
X79760000Y-152974000D03*
X64860000Y-58420000D03*
X64945000Y-78900000D03*
X49095000Y-73900000D03*
X45787928Y-109360000D03*
X49187928Y-106760000D03*
X72544800Y-65830000D03*
X120780920Y-73839080D03*
X72632728Y-115290000D03*
X96470000Y-60080000D03*
X64880000Y-124390000D03*
X49101464Y-90483822D03*
X89941464Y-98083822D03*
X119110000Y-121900000D03*
X117280000Y-124390000D03*
X94020000Y-99090000D03*
X85910000Y-131230000D03*
X57027000Y-59700000D03*
X94850000Y-128590000D03*
X92936606Y-146733394D03*
X87520000Y-70500000D03*
X76460000Y-130990000D03*
X40760000Y-126010000D03*
X70790000Y-70500000D03*
X86100000Y-152990000D03*
X46300000Y-145890000D03*
X66687928Y-108760000D03*
X46287928Y-112860000D03*
X92930000Y-127440000D03*
X83650000Y-63150000D03*
X57520000Y-126970000D03*
X58310000Y-100790000D03*
X95520000Y-96260000D03*
X45700000Y-59900000D03*
X66595000Y-75900000D03*
X40195000Y-75800000D03*
X92855000Y-83744800D03*
X87607928Y-119960000D03*
X76441464Y-98203822D03*
X72644800Y-148320000D03*
X66620000Y-125270000D03*
X49200000Y-139790000D03*
X85977928Y-114720000D03*
X124780000Y-68640000D03*
X45887928Y-115660000D03*
X36200000Y-59800000D03*
X92910000Y-61470000D03*
X52960000Y-151550000D03*
X64970000Y-128270000D03*
X76325558Y-133189442D03*
X48112928Y-119860000D03*
X47330000Y-86210000D03*
X86780000Y-64690000D03*
X120240000Y-133140000D03*
X40830000Y-142320000D03*
X57022000Y-76300000D03*
X76307022Y-100403264D03*
X86000000Y-70500000D03*
X48800000Y-152750000D03*
X44127236Y-127518896D03*
X126850000Y-73620000D03*
X45720000Y-125870000D03*
X79661464Y-103667822D03*
X92905000Y-78070000D03*
X76527928Y-114480000D03*
X74945000Y-75900000D03*
X79660000Y-70484000D03*
X92997928Y-110930000D03*
X64861464Y-91603822D03*
X92861464Y-100328622D03*
X86087928Y-119960000D03*
X79655000Y-87084000D03*
X93731638Y-82695907D03*
X40200000Y-59200000D03*
X86781464Y-97873822D03*
X70785000Y-87100000D03*
X36300000Y-142290000D03*
X87620000Y-152990000D03*
X89940000Y-64900000D03*
X58597000Y-68110000D03*
X52855000Y-85660000D03*
X66601464Y-92483822D03*
X64951464Y-95483822D03*
X56700000Y-109160000D03*
X70810000Y-136470000D03*
X91417928Y-114820000D03*
X57500000Y-61000000D03*
X57160000Y-93230000D03*
X72055000Y-153024138D03*
X87521464Y-103683822D03*
X86775000Y-81290000D03*
X125890000Y-64780000D03*
X85885000Y-81860000D03*
X89935000Y-81500000D03*
X58617000Y-134080000D03*
X89960000Y-130870000D03*
X70890000Y-152990000D03*
X76393486Y-116679442D03*
X66700000Y-141790000D03*
X109000000Y-141500000D03*
X45801464Y-99383822D03*
X91940000Y-151150000D03*
X72546264Y-99013822D03*
X86001464Y-103683822D03*
X64947928Y-107880000D03*
X83670000Y-129120000D03*
X45820000Y-132170000D03*
X64855000Y-75020000D03*
X91350000Y-131330000D03*
X57600000Y-143490000D03*
X58125088Y-109516044D03*
X66600000Y-59300000D03*
X40300000Y-107050400D03*
X113800000Y-85710000D03*
X87515000Y-87100000D03*
X76440000Y-65020000D03*
X44108700Y-94732718D03*
X44470000Y-61670000D03*
X65050000Y-144790000D03*
X46220000Y-129370000D03*
X36700000Y-149290000D03*
X70877928Y-119960000D03*
X45701464Y-93083822D03*
X59500000Y-163000000D03*
X75050000Y-141790000D03*
X86867928Y-114150000D03*
X74970000Y-125270000D03*
X57127000Y-142190000D03*
X45800000Y-142390000D03*
X74950000Y-59300000D03*
X76540000Y-147510000D03*
X52861464Y-102243822D03*
X92880000Y-133114800D03*
X44195164Y-111008896D03*
X72042928Y-119994138D03*
X46195000Y-80000000D03*
X71956464Y-103717960D03*
X86880000Y-147180000D03*
X79747928Y-119944000D03*
X83750000Y-145640000D03*
X40660000Y-90910000D03*
X85890000Y-65260000D03*
X93010000Y-143960000D03*
X74951464Y-92483822D03*
X52860000Y-69060000D03*
X72564800Y-131800000D03*
X72539800Y-82430000D03*
X85995000Y-87100000D03*
X58592000Y-84710000D03*
X85891464Y-98443822D03*
X110840000Y-83630000D03*
X64960000Y-140910000D03*
X75037928Y-108760000D03*
X36940000Y-66670000D03*
X65037928Y-111760000D03*
X79680000Y-136454000D03*
X86800000Y-130660000D03*
X45800000Y-66200000D03*
X85990000Y-147750000D03*
X49120000Y-123270000D03*
X45695000Y-76500000D03*
X95040000Y-112060000D03*
X94790000Y-62680000D03*
X58684928Y-117570000D03*
X48026464Y-103583822D03*
X71975000Y-136504138D03*
X107850000Y-91360000D03*
X90027928Y-114360000D03*
X63520000Y-153180000D03*
X66130000Y-152974000D03*
X81610000Y-152974000D03*
X111390000Y-90620000D03*
X52170000Y-77250000D03*
X48245000Y-83175000D03*
X48250000Y-66575000D03*
X52175000Y-60650000D03*
X117060000Y-135520000D03*
X116200000Y-135760000D03*
X49622000Y-79975000D03*
X49627000Y-63375000D03*
X54195000Y-74150000D03*
X52550920Y-78505920D03*
X52555920Y-61905920D03*
X54200000Y-57550000D03*
X74820000Y-74325000D03*
X74825000Y-57725000D03*
X81690000Y-57710000D03*
X81685000Y-74310000D03*
X90330000Y-75660000D03*
X87165000Y-76040000D03*
X87170000Y-59440000D03*
X92700000Y-59290000D03*
X49628464Y-96558822D03*
X48251464Y-99758822D03*
X52176464Y-93833822D03*
X54201464Y-90733822D03*
X52557384Y-95089742D03*
X74826464Y-90908822D03*
X81691464Y-90893822D03*
X87171464Y-92623822D03*
X92441464Y-92973822D03*
X49714928Y-112835000D03*
X52262928Y-109742961D03*
X48900000Y-115060000D03*
X52760000Y-111630000D03*
X54287928Y-107010000D03*
X74912928Y-107185000D03*
X81777928Y-107170000D03*
X87257928Y-108900000D03*
X90200000Y-108730000D03*
X49647000Y-129345000D03*
X52195000Y-126620000D03*
X48270000Y-132545000D03*
X52575920Y-127875920D03*
X54220000Y-123520000D03*
X74845000Y-123695000D03*
X81710000Y-123680000D03*
X87190000Y-125410000D03*
X92080000Y-125120000D03*
X49727000Y-145865000D03*
X48350000Y-149065000D03*
X52275000Y-143140000D03*
X53670000Y-139900000D03*
X52655920Y-144395920D03*
X74925000Y-140215000D03*
X81790000Y-140200000D03*
X91280000Y-141550000D03*
X87270000Y-141930000D03*
X57645000Y-73900000D03*
X57645000Y-78900000D03*
X57495000Y-82600000D03*
X57650000Y-57300000D03*
X57500000Y-66000000D03*
X57650000Y-62300000D03*
X58940000Y-98900000D03*
X57651464Y-95483822D03*
X57651464Y-90483822D03*
X57737928Y-111760000D03*
X57737928Y-106760000D03*
X57587928Y-115460000D03*
X57670000Y-128270000D03*
X57670000Y-123270000D03*
X57520000Y-131970000D03*
X57600000Y-148490000D03*
X57750000Y-139790000D03*
X57750000Y-144790000D03*
X41210000Y-81511643D03*
X65000655Y-82661057D03*
X64915000Y-81550000D03*
X41295000Y-78200000D03*
X39900000Y-64773000D03*
X65005655Y-66061057D03*
X41300000Y-61600000D03*
X64920000Y-64950000D03*
X41301464Y-94783822D03*
X64921464Y-98133822D03*
X65007119Y-99244879D03*
X40830000Y-97927698D03*
X39987928Y-114233000D03*
X65093583Y-115521057D03*
X41387928Y-111060000D03*
X65007928Y-114410000D03*
X39920000Y-130743000D03*
X65030000Y-132420000D03*
X64960000Y-131550000D03*
X41320000Y-127570000D03*
X65105655Y-148551057D03*
X40000000Y-147263000D03*
X41400000Y-144090000D03*
X65020000Y-147440000D03*
X139720000Y-104270000D03*
X141167759Y-102775666D03*
D22*
X57945000Y-75495200D02*
X58990200Y-75495200D01*
X86741464Y-93483822D02*
X88901464Y-93483822D01*
X59687928Y-107060000D02*
X58392728Y-108355200D01*
X90625200Y-60300000D02*
X95551840Y-60300000D01*
X71550000Y-142790000D02*
X86840000Y-142790000D01*
X35080000Y-67270000D02*
X35090000Y-67280000D01*
X51004800Y-58895200D02*
X57950000Y-58895200D01*
X90310000Y-127660000D02*
X91420000Y-128770000D01*
X58324800Y-124865200D02*
X57970000Y-124865200D01*
X86760000Y-126270000D02*
X88920000Y-126270000D01*
X49020000Y-126870000D02*
X51024800Y-124865200D01*
X92941464Y-95983822D02*
X91401464Y-95983822D01*
X58304800Y-58895200D02*
X57950000Y-58895200D01*
X60395000Y-76900000D02*
X71445000Y-76900000D01*
X70807396Y-92090132D02*
X70807396Y-92839754D01*
X59015200Y-124865200D02*
X60420000Y-126270000D01*
X86735000Y-76900000D02*
X88895000Y-76900000D01*
X58392728Y-108355200D02*
X58037928Y-108355200D01*
X98781840Y-63530000D02*
X107775000Y-63530000D01*
X92935000Y-79400000D02*
X91395000Y-79400000D01*
X49100000Y-143390000D02*
X51104800Y-141385200D01*
X35080000Y-65458160D02*
X35080000Y-65900000D01*
X59601464Y-90783822D02*
X58306264Y-92079022D01*
X50499800Y-74995200D02*
X35214800Y-74995200D01*
X88901464Y-93483822D02*
X90291464Y-94873822D01*
X71470000Y-126270000D02*
X86760000Y-126270000D01*
X50519600Y-124360000D02*
X34510000Y-124360000D01*
X70800932Y-75506310D02*
X70800932Y-76255932D01*
X51092728Y-108355200D02*
X58037928Y-108355200D01*
X59595000Y-74200000D02*
X58299800Y-75495200D01*
X70905932Y-142145932D02*
X71550000Y-142790000D01*
X90291464Y-94873822D02*
X91401464Y-95983822D01*
X60420000Y-126270000D02*
X71470000Y-126270000D01*
X35090000Y-140340000D02*
X44888160Y-140340000D01*
X70905932Y-141396310D02*
X70905932Y-142145932D01*
X58995200Y-58895200D02*
X60400000Y-60300000D01*
X90625200Y-60300000D02*
X88900000Y-60300000D01*
X58037928Y-108355200D02*
X59083128Y-108355200D01*
X107775000Y-63530000D02*
X108840000Y-62465000D01*
X86380000Y-60300000D02*
X86740000Y-60300000D01*
X86381464Y-93483822D02*
X86741464Y-93483822D01*
X35214800Y-74995200D02*
X33910000Y-76300000D01*
X57951464Y-92079022D02*
X58996664Y-92079022D01*
X85345000Y-75870000D02*
X86375000Y-76900000D01*
X34510000Y-124360000D02*
X33630000Y-123480000D01*
X60487928Y-109760000D02*
X71537928Y-109760000D01*
X85437928Y-108730000D02*
X86467928Y-109760000D01*
X90390000Y-144180000D02*
X91500000Y-145290000D01*
X70805932Y-58906310D02*
X70805932Y-59655932D01*
X70800932Y-76255932D02*
X71445000Y-76900000D01*
X92960000Y-128770000D02*
X91420000Y-128770000D01*
X71451464Y-93483822D02*
X86741464Y-93483822D01*
X58990200Y-75495200D02*
X60395000Y-76900000D01*
X51005286Y-92080000D02*
X35190000Y-92080000D01*
X59700000Y-140090000D02*
X58404800Y-141385200D01*
X59083128Y-108355200D02*
X60487928Y-109760000D01*
X70893860Y-108366310D02*
X70893860Y-109115932D01*
X51024800Y-124865200D02*
X57970000Y-124865200D01*
X51004800Y-58895200D02*
X41642960Y-58895200D01*
X89000000Y-142790000D02*
X90390000Y-144180000D01*
X86840000Y-142790000D02*
X89000000Y-142790000D01*
X44888160Y-140340000D02*
X45933360Y-141385200D01*
X86400000Y-126270000D02*
X86760000Y-126270000D01*
X71537928Y-109760000D02*
X86827928Y-109760000D01*
X35190000Y-92080000D02*
X33950000Y-90840000D01*
X51006264Y-92079022D02*
X57951464Y-92079022D01*
X51104800Y-141385200D02*
X58050000Y-141385200D01*
X37374948Y-108350000D02*
X36364948Y-107340000D01*
X36364948Y-107340000D02*
X33740000Y-107340000D01*
X49000000Y-60900000D02*
X51004800Y-58895200D01*
X70805932Y-59655932D02*
X71450000Y-60300000D01*
X93040000Y-145290000D02*
X91500000Y-145290000D01*
X60500000Y-142790000D02*
X71550000Y-142790000D01*
X51087528Y-108350000D02*
X37374948Y-108350000D01*
X50999800Y-75495200D02*
X50499800Y-74995200D01*
X85370000Y-125240000D02*
X86400000Y-126270000D01*
X71450000Y-60300000D02*
X86740000Y-60300000D01*
X90377928Y-111150000D02*
X91487928Y-112260000D01*
X58404800Y-141385200D02*
X58050000Y-141385200D01*
X85450000Y-141760000D02*
X86480000Y-142790000D01*
X48995000Y-77500000D02*
X50999800Y-75495200D01*
X57950000Y-58895200D02*
X58995200Y-58895200D01*
X86375000Y-76900000D02*
X86735000Y-76900000D01*
X88895000Y-76900000D02*
X91395000Y-79400000D01*
X59095200Y-141385200D02*
X60500000Y-142790000D01*
X59620000Y-123570000D02*
X58324800Y-124865200D01*
X51092728Y-108355200D02*
X51087528Y-108350000D01*
X45933360Y-141385200D02*
X51104800Y-141385200D01*
X50017928Y-109430000D02*
X51092728Y-108355200D01*
X50999800Y-75495200D02*
X57945000Y-75495200D01*
X85350000Y-59270000D02*
X86380000Y-60300000D01*
X51006264Y-92079022D02*
X51005286Y-92080000D01*
X71445000Y-76900000D02*
X86735000Y-76900000D01*
X60401464Y-93483822D02*
X71451464Y-93483822D01*
X86480000Y-142790000D02*
X86840000Y-142790000D01*
X70825932Y-125625932D02*
X71470000Y-126270000D01*
X85351464Y-92453822D02*
X86381464Y-93483822D01*
X88987928Y-109760000D02*
X90377928Y-111150000D01*
X59600000Y-57600000D02*
X58304800Y-58895200D01*
X60400000Y-60300000D02*
X71450000Y-60300000D01*
X88920000Y-126270000D02*
X90310000Y-127660000D01*
X51024800Y-124865200D02*
X50519600Y-124360000D01*
X95551840Y-60300000D02*
X98781840Y-63530000D01*
X57970000Y-124865200D02*
X59015200Y-124865200D01*
X70825932Y-124876310D02*
X70825932Y-125625932D01*
X86827928Y-109760000D02*
X88987928Y-109760000D01*
X58996664Y-92079022D02*
X60401464Y-93483822D01*
X58050000Y-141385200D02*
X59095200Y-141385200D01*
X35080000Y-65900000D02*
X35080000Y-67270000D01*
X70893860Y-109115932D02*
X71537928Y-109760000D01*
X93027928Y-112260000D02*
X91487928Y-112260000D01*
X86740000Y-60300000D02*
X88900000Y-60300000D01*
X58306264Y-92079022D02*
X57951464Y-92079022D01*
X86467928Y-109760000D02*
X86827928Y-109760000D01*
X91970000Y-61644800D02*
X90625200Y-60300000D01*
X41642960Y-58895200D02*
X35080000Y-65458160D01*
X49050000Y-109430000D02*
X50017928Y-109430000D01*
X49001464Y-94083822D02*
X51006264Y-92079022D01*
X91970000Y-62060000D02*
X91970000Y-61644800D01*
X70807396Y-92839754D02*
X71451464Y-93483822D01*
X58299800Y-75495200D02*
X57945000Y-75495200D01*
X87672728Y-113816640D02*
X87672728Y-116162200D01*
X47310000Y-144440000D02*
X50900000Y-144440000D01*
X89200000Y-145770000D02*
X89450000Y-146020000D01*
X70801464Y-94293422D02*
X73641464Y-94293422D01*
X46830000Y-78550000D02*
X46070000Y-77790000D01*
X87550000Y-132727000D02*
X88360000Y-131917000D01*
X87672728Y-116162200D02*
X87617928Y-116217000D01*
X50795000Y-78550000D02*
X52845000Y-80600000D01*
X54700000Y-146490000D02*
X55150000Y-146490000D01*
X60084652Y-127079600D02*
X70820000Y-127079600D01*
X73641464Y-94293422D02*
X81891464Y-94293422D01*
X73740000Y-143599600D02*
X81990000Y-143599600D01*
X69950000Y-144549600D02*
X70900000Y-143599600D01*
X69845000Y-80000000D02*
X69845000Y-78659600D01*
X88440000Y-145019600D02*
X88449600Y-145019600D01*
X71760000Y-128979600D02*
X73660000Y-127079600D01*
X45656464Y-95828822D02*
X46351464Y-95133822D01*
X52870000Y-129970000D02*
X55070000Y-129970000D01*
X70214860Y-83290140D02*
X71735000Y-81770000D01*
X57194252Y-129970000D02*
X60084652Y-127079600D01*
X81910000Y-127079600D02*
X88584652Y-127079600D01*
X69870000Y-129370000D02*
X69870000Y-128029600D01*
X73660000Y-127079600D02*
X81910000Y-127079600D01*
X79287928Y-113259600D02*
X81977928Y-110569600D01*
X60066116Y-94293422D02*
X70801464Y-94293422D01*
X88340000Y-64990000D02*
X89370000Y-63960000D01*
X46370000Y-127920000D02*
X43624800Y-125174800D01*
X46350000Y-61950000D02*
X50800000Y-61950000D01*
X52950000Y-146490000D02*
X55150000Y-146490000D01*
X91416516Y-97143822D02*
X92358990Y-98086296D01*
X50230000Y-78550000D02*
X50795000Y-78550000D01*
X46070000Y-77790000D02*
X45352608Y-77790000D01*
X79300000Y-146289600D02*
X81990000Y-143599600D01*
X47490000Y-78550000D02*
X50230000Y-78550000D01*
X50900000Y-144440000D02*
X52950000Y-146490000D01*
X89365000Y-80560000D02*
X91410052Y-80560000D01*
X46345000Y-78550000D02*
X47490000Y-78550000D01*
X71840000Y-145499600D02*
X73740000Y-143599600D01*
X88566116Y-94293422D02*
X92358990Y-98086296D01*
X55150000Y-146490000D02*
X57274252Y-146490000D01*
X90240000Y-129270000D02*
X90240000Y-128734948D01*
X54601464Y-97183822D02*
X55051464Y-97183822D01*
X69850000Y-63400000D02*
X69850000Y-62059600D01*
X39200400Y-141149600D02*
X42979600Y-141149600D01*
X71827928Y-112469600D02*
X73727928Y-110569600D01*
X87525000Y-83357000D02*
X88335000Y-82547000D01*
X93112526Y-65657474D02*
X94360000Y-64410000D01*
X88449600Y-145019600D02*
X89200000Y-145770000D01*
X41230000Y-109900000D02*
X37780000Y-109900000D01*
X55270000Y-111280000D02*
X53888964Y-112661036D01*
X45920000Y-128370000D02*
X46370000Y-127920000D01*
X71740000Y-63009600D02*
X73640000Y-61109600D01*
X88559652Y-77709600D02*
X92352526Y-81502474D01*
X79200000Y-65040000D02*
X79200000Y-63799600D01*
X73640000Y-61109600D02*
X81890000Y-61109600D01*
X70219860Y-66690140D02*
X71740000Y-65170000D01*
X88584652Y-127079600D02*
X90240000Y-128734948D01*
X79220000Y-129769600D02*
X81910000Y-127079600D01*
X92357526Y-64902474D02*
X93112526Y-65657474D01*
X91415052Y-63960000D02*
X92357526Y-64902474D01*
X111975000Y-64410000D02*
X113920000Y-62465000D01*
X79195000Y-80399600D02*
X81885000Y-77709600D01*
X46370000Y-127920000D02*
X50820000Y-127920000D01*
X46351464Y-95133822D02*
X50801464Y-95133822D01*
X45010000Y-109900000D02*
X41230000Y-109900000D01*
X90086956Y-112536956D02*
X90410000Y-112860000D01*
X43624800Y-125174800D02*
X37555200Y-125174800D01*
X37424800Y-76604800D02*
X36950000Y-76130000D01*
X81885000Y-77709600D02*
X88559652Y-77709600D01*
X47080000Y-110569600D02*
X55270000Y-110569600D01*
X92352526Y-82137274D02*
X92352526Y-81502474D01*
X94360000Y-64410000D02*
X111975000Y-64410000D01*
X52850000Y-64000000D02*
X55050000Y-64000000D01*
X88440000Y-145019600D02*
X87020000Y-143599600D01*
X71735000Y-79609600D02*
X73635000Y-77709600D01*
X70887928Y-110569600D02*
X73727928Y-110569600D01*
X79195000Y-81640000D02*
X79195000Y-80399600D01*
X45180000Y-110070000D02*
X45010000Y-109900000D01*
X92390000Y-98117306D02*
X92390000Y-99015286D01*
X50820000Y-127920000D02*
X52870000Y-129970000D01*
X71741464Y-96193422D02*
X73641464Y-94293422D01*
X88340000Y-65947000D02*
X88340000Y-64990000D01*
X88360000Y-131150000D02*
X90240000Y-129270000D01*
X45679600Y-110569600D02*
X47080000Y-110569600D01*
X70820000Y-127079600D02*
X73660000Y-127079600D01*
X69937928Y-112860000D02*
X69937928Y-111519600D01*
X52845000Y-80600000D02*
X55045000Y-80600000D01*
X81990000Y-143599600D02*
X87020000Y-143599600D01*
X55050000Y-64000000D02*
X57174252Y-64000000D01*
X81977928Y-110569600D02*
X84425688Y-110569600D01*
X69950000Y-145890000D02*
X69950000Y-144549600D01*
X69937928Y-111519600D02*
X70887928Y-110569600D01*
X88440000Y-148437000D02*
X88440000Y-147480000D01*
X41213108Y-60470000D02*
X44870000Y-60470000D01*
X38670000Y-141680000D02*
X39200400Y-141149600D01*
X45895000Y-79000000D02*
X46345000Y-78550000D01*
X88564652Y-61109600D02*
X92357526Y-64902474D01*
X45655000Y-62645000D02*
X46350000Y-61950000D01*
X57174252Y-64000000D02*
X60064652Y-61109600D01*
X88341464Y-99130822D02*
X88341464Y-98173822D01*
X45987928Y-111860000D02*
X45987928Y-111661672D01*
X57169252Y-80600000D02*
X60059652Y-77709600D01*
X70795000Y-77709600D02*
X73635000Y-77709600D01*
X88335000Y-81590000D02*
X89365000Y-80560000D01*
X53095000Y-79100000D02*
X54595000Y-80600000D01*
X87530000Y-66757000D02*
X88340000Y-65947000D01*
X87630000Y-149247000D02*
X88440000Y-148437000D01*
X81891464Y-94293422D02*
X88566116Y-94293422D01*
X37780000Y-109900000D02*
X37120000Y-109240000D01*
X50801464Y-95133822D02*
X52851464Y-97183822D01*
X53100000Y-62500000D02*
X54600000Y-64000000D01*
X37555200Y-125174800D02*
X37160000Y-125570000D01*
X69850000Y-62059600D02*
X70800000Y-61109600D01*
X70239860Y-132660140D02*
X71760000Y-131140000D01*
X55270000Y-110569600D02*
X57570400Y-110569600D01*
X53101464Y-95683822D02*
X54601464Y-97183822D01*
X45987928Y-111661672D02*
X47080000Y-110569600D01*
X50800000Y-61950000D02*
X52850000Y-64000000D01*
X86393044Y-112536956D02*
X90086956Y-112536956D01*
X92390000Y-99015286D02*
X91861464Y-99543822D01*
X46270000Y-144440000D02*
X47310000Y-144440000D01*
X71735000Y-81770000D02*
X71735000Y-79609600D01*
X71741464Y-98353822D02*
X71741464Y-96193422D01*
X81890000Y-61109600D02*
X88564652Y-61109600D01*
X45647964Y-95133822D02*
X46351464Y-95133822D01*
X79220000Y-131010000D02*
X79220000Y-129769600D01*
X73635000Y-77709600D02*
X81885000Y-77709600D01*
X91410052Y-80560000D02*
X92352526Y-81502474D01*
X55051464Y-97183822D02*
X57175716Y-97183822D01*
X46450000Y-144440000D02*
X47310000Y-144440000D01*
X92410000Y-66360000D02*
X91860000Y-66360000D01*
X92129800Y-82360000D02*
X92352526Y-82137274D01*
X57175716Y-97183822D02*
X60066116Y-94293422D01*
X89371464Y-97143822D02*
X91416516Y-97143822D01*
X60164652Y-143599600D02*
X70900000Y-143599600D01*
X71740000Y-65170000D02*
X71740000Y-63009600D01*
X70307788Y-116150140D02*
X71827928Y-114630000D01*
X55045000Y-80600000D02*
X57169252Y-80600000D01*
X73727928Y-110569600D02*
X81977928Y-110569600D01*
X87531464Y-99940822D02*
X88341464Y-99130822D01*
X38640000Y-93200000D02*
X43714142Y-93200000D01*
X79201464Y-98223822D02*
X79201464Y-96983422D01*
X44870000Y-60470000D02*
X46350000Y-61950000D01*
X46000000Y-144890000D02*
X46450000Y-144440000D01*
X88440000Y-147480000D02*
X88440000Y-145019600D01*
X71840000Y-147660000D02*
X71840000Y-145499600D01*
X55070000Y-129970000D02*
X57194252Y-129970000D01*
X86393044Y-112536956D02*
X87672728Y-113816640D01*
X44167408Y-76604800D02*
X37424800Y-76604800D01*
X45352608Y-77790000D02*
X44167408Y-76604800D01*
X69851464Y-95243422D02*
X70801464Y-94293422D01*
X54600000Y-64000000D02*
X55050000Y-64000000D01*
X70800000Y-61109600D02*
X73640000Y-61109600D01*
X88341464Y-98173822D02*
X89371464Y-97143822D01*
X43714142Y-93200000D02*
X45647964Y-95133822D01*
X84425688Y-110569600D02*
X86393044Y-112536956D01*
X36000000Y-67440000D02*
X36000000Y-65683108D01*
X50230000Y-78550000D02*
X46830000Y-78550000D01*
X92358990Y-98086296D02*
X92390000Y-98117306D01*
X89370000Y-63960000D02*
X91415052Y-63960000D01*
X52851464Y-97183822D02*
X55051464Y-97183822D01*
X60064652Y-61109600D02*
X70800000Y-61109600D01*
X69851464Y-96583822D02*
X69851464Y-95243422D01*
X57570400Y-110569600D02*
X70887928Y-110569600D01*
X54595000Y-80600000D02*
X55045000Y-80600000D01*
X70319860Y-149180140D02*
X71840000Y-147660000D01*
X55270000Y-110569600D02*
X55270000Y-111280000D01*
X69870000Y-128029600D02*
X70820000Y-127079600D01*
X45495000Y-110385000D02*
X45180000Y-110070000D01*
X79300000Y-147530000D02*
X79300000Y-146289600D01*
X79201464Y-96983422D02*
X81891464Y-94293422D01*
X90240000Y-128734948D02*
X91435052Y-129930000D01*
X36000000Y-65683108D02*
X41213108Y-60470000D01*
X79200000Y-63799600D02*
X81890000Y-61109600D01*
X53200000Y-144990000D02*
X54700000Y-146490000D01*
X42979600Y-141149600D02*
X46270000Y-144440000D01*
X71760000Y-131140000D02*
X71760000Y-128979600D01*
X88335000Y-82547000D02*
X88335000Y-81590000D01*
X93112526Y-65657474D02*
X92410000Y-66360000D01*
X60059652Y-77709600D02*
X70795000Y-77709600D01*
X45495000Y-110385000D02*
X45679600Y-110569600D01*
X88360000Y-131917000D02*
X88360000Y-131150000D01*
X70221324Y-99873962D02*
X71741464Y-98353822D01*
X54620000Y-129970000D02*
X55070000Y-129970000D01*
X71827928Y-114630000D02*
X71827928Y-112469600D01*
X69845000Y-78659600D02*
X70795000Y-77709600D01*
X57274252Y-146490000D02*
X60164652Y-143599600D01*
X53120000Y-128470000D02*
X54620000Y-129970000D01*
X79287928Y-114500000D02*
X79287928Y-113259600D01*
X70900000Y-143599600D02*
X73740000Y-143599600D01*
X89450000Y-146020000D02*
X90400000Y-146020000D01*
X31800000Y-74700000D02*
X31750000Y-74700000D01*
X114800000Y-124510000D02*
X114485200Y-124195200D01*
X110960000Y-118540000D02*
X111000000Y-118500000D01*
X108855200Y-76445200D02*
X102575000Y-70165000D01*
X110845000Y-134065000D02*
X112315000Y-134065000D01*
X110960000Y-118820000D02*
X110960000Y-118540000D01*
X54750000Y-70550000D02*
X54720000Y-70580000D01*
X56884400Y-153064400D02*
X56884400Y-153054400D01*
X52928653Y-153054400D02*
X56884400Y-153054400D01*
X113200000Y-119610000D02*
X112130000Y-119610000D01*
X69120000Y-156100000D02*
X59920000Y-156100000D01*
X103160000Y-70750000D02*
X102575000Y-70165000D01*
X57680000Y-153850000D02*
X57770000Y-153760000D01*
X112860000Y-120930000D02*
X112860000Y-120340000D01*
X107500000Y-116500000D02*
X108855200Y-115144800D01*
X52460000Y-70090000D02*
X51279600Y-71270400D01*
X68269600Y-174489600D02*
X69490400Y-174489600D01*
X54720000Y-70580000D02*
X54230000Y-70090000D01*
X69490400Y-174489600D02*
X77730000Y-166250000D01*
X31884652Y-151359600D02*
X51233853Y-151359600D01*
X103160000Y-72940000D02*
X103160000Y-70750000D01*
X82950000Y-161540000D02*
X81730000Y-160320000D01*
X58780000Y-137240000D02*
X57234948Y-137240000D01*
X114485200Y-120895200D02*
X113200000Y-119610000D01*
X58760000Y-71270000D02*
X59460000Y-70570000D01*
X31590000Y-104690000D02*
X30380000Y-103480000D01*
X101279600Y-68869600D02*
X61160400Y-68869600D01*
X81730000Y-160320000D02*
X76480000Y-160320000D01*
X66560000Y-169265000D02*
X66560000Y-172780000D01*
X57770000Y-153760000D02*
X58860000Y-153760000D01*
X31430000Y-86520000D02*
X30450000Y-87500000D01*
X57655000Y-86770000D02*
X52010000Y-86770000D01*
X59920000Y-156100000D02*
X56884400Y-153064400D01*
X82950000Y-161550000D02*
X82950000Y-161540000D01*
X114485200Y-124195200D02*
X114485200Y-120895200D01*
X35229600Y-71270400D02*
X31800000Y-74700000D01*
X77730000Y-166250000D02*
X77730000Y-161570000D01*
X61160400Y-68869600D02*
X59460000Y-70570000D01*
X56344948Y-136350000D02*
X51455052Y-136350000D01*
X111920277Y-135409360D02*
X111920277Y-135140277D01*
X66835000Y-168990000D02*
X66560000Y-169265000D01*
X29915200Y-150720000D02*
X31245052Y-150720000D01*
X102575000Y-70165000D02*
X101279600Y-68869600D01*
X51233853Y-151359600D02*
X52928653Y-153054400D01*
X57234948Y-137240000D02*
X56344948Y-136350000D01*
X58761464Y-104453822D02*
X55213822Y-104453822D01*
X56884400Y-153054400D02*
X57680000Y-153850000D01*
X51119200Y-87670400D02*
X50130000Y-87670400D01*
X108855200Y-115144800D02*
X108855200Y-114500000D01*
X51279600Y-71270400D02*
X35229600Y-71270400D01*
X73340000Y-160320000D02*
X69120000Y-156100000D01*
X54230000Y-70090000D02*
X52460000Y-70090000D01*
X31439600Y-137240400D02*
X30330000Y-138350000D01*
X59460000Y-70570000D02*
X58269642Y-70570000D01*
X113240000Y-134990000D02*
X113240000Y-135800000D01*
X50130000Y-87670400D02*
X35990400Y-87670400D01*
X51455052Y-136350000D02*
X50564652Y-137240400D01*
X111920277Y-135140277D02*
X110845000Y-134065000D01*
X50564652Y-137240400D02*
X31439600Y-137240400D01*
X58249642Y-70550000D02*
X54750000Y-70550000D01*
X54210000Y-103450000D02*
X52300000Y-103450000D01*
X76480000Y-160320000D02*
X73340000Y-160320000D01*
X51379600Y-87400400D02*
X51379600Y-87410000D01*
X30450000Y-87500000D02*
X30440000Y-87490000D01*
X31245052Y-150720000D02*
X31884652Y-151359600D01*
X108855200Y-114500000D02*
X108855200Y-76445200D01*
X34840000Y-86520000D02*
X31430000Y-86520000D01*
X55213822Y-104453822D02*
X54210000Y-103450000D01*
X34030000Y-120730000D02*
X32710000Y-119410000D01*
X32710000Y-119410000D02*
X30650000Y-119410000D01*
X58847928Y-120730000D02*
X34030000Y-120730000D01*
X51060000Y-104690000D02*
X31590000Y-104690000D01*
X66560000Y-172780000D02*
X68269600Y-174489600D01*
X112860000Y-120340000D02*
X112130000Y-119610000D01*
X108855200Y-116420000D02*
X108855200Y-114500000D01*
X51379600Y-87410000D02*
X51119200Y-87670400D01*
X110845000Y-134065000D02*
X108855200Y-132075200D01*
X52300000Y-103450000D02*
X51060000Y-104690000D01*
X108855200Y-132075200D02*
X108855200Y-116420000D01*
X35990400Y-87670400D02*
X34840000Y-86520000D01*
X111750000Y-119610000D02*
X110960000Y-118820000D01*
X30650000Y-119410000D02*
X30160000Y-119900000D01*
X58755000Y-87870000D02*
X57655000Y-86770000D01*
X112130000Y-119610000D02*
X111750000Y-119610000D01*
X112315000Y-134065000D02*
X113240000Y-134990000D01*
X77730000Y-161570000D02*
X76480000Y-160320000D01*
X58269642Y-70570000D02*
X58249642Y-70550000D01*
X52010000Y-86770000D02*
X51379600Y-87400400D01*
X114410000Y-134270000D02*
X114410000Y-135850000D01*
X34400000Y-88480000D02*
X52325000Y-88480000D01*
X51825286Y-105570000D02*
X46010000Y-105570000D01*
X116290000Y-119950000D02*
X112825000Y-116485000D01*
X96859200Y-69679200D02*
X97865000Y-70685000D01*
X110815000Y-116485000D02*
X112080000Y-117750000D01*
X30820000Y-77120000D02*
X35860000Y-72080000D01*
X98860000Y-71680000D02*
X97865000Y-70685000D01*
X111700000Y-131560000D02*
X111575000Y-131435000D01*
X111294800Y-124530000D02*
X109664800Y-122900000D01*
X118560000Y-135540000D02*
X117290000Y-134270000D01*
X53001464Y-104393822D02*
X51825286Y-105570000D01*
X53001464Y-104393822D02*
X53001464Y-104411464D01*
X33720000Y-87800000D02*
X34400000Y-88480000D01*
X110880000Y-130740000D02*
X111575000Y-131435000D01*
X110880000Y-130740000D02*
X111030000Y-130740000D01*
X114750000Y-134470000D02*
X115310000Y-135030000D01*
X109664800Y-115334800D02*
X110815000Y-116485000D01*
X109664800Y-115250000D02*
X109664800Y-115334800D01*
X101090000Y-71680000D02*
X98860000Y-71680000D01*
X109664800Y-122900000D02*
X109664800Y-129524800D01*
X73692526Y-161817474D02*
X74105052Y-162230000D01*
X51360000Y-122430000D02*
X52850000Y-122430000D01*
X68900000Y-173480000D02*
X75650000Y-166730000D01*
X113040000Y-75090000D02*
X113040000Y-75120000D01*
X33840000Y-105570000D02*
X33360000Y-106050000D01*
X35860000Y-72080000D02*
X59400000Y-72080000D01*
X112825000Y-116485000D02*
X110815000Y-116485000D01*
X49670000Y-153920000D02*
X48831840Y-153920000D01*
X111030000Y-130740000D02*
X111690000Y-130080000D01*
X56595052Y-153920000D02*
X59584652Y-156909600D01*
X59584652Y-156909600D02*
X68784652Y-156909600D01*
X50900000Y-138050000D02*
X34000000Y-138050000D01*
X50450000Y-154700000D02*
X49670000Y-153920000D01*
X47081040Y-152169200D02*
X31414670Y-152169200D01*
X109664800Y-129524800D02*
X110880000Y-130740000D01*
X51770000Y-137180000D02*
X50900000Y-138050000D01*
X75650000Y-166730000D02*
X75650000Y-163920000D01*
X73692526Y-161862526D02*
X73692526Y-161817474D01*
X31414670Y-152169200D02*
X31172735Y-151927265D01*
X53000000Y-71380000D02*
X53700000Y-72080000D01*
X75650000Y-163920000D02*
X75700000Y-163870000D01*
X75240000Y-162230000D02*
X75890000Y-162230000D01*
X112080000Y-117750000D02*
X112480000Y-117750000D01*
X113040000Y-75120000D02*
X109664800Y-78495200D01*
X114750000Y-134270000D02*
X114410000Y-134270000D01*
X52325000Y-88480000D02*
X52995000Y-87810000D01*
X48831840Y-153920000D02*
X47081040Y-152169200D01*
X50470000Y-121540000D02*
X51360000Y-122430000D01*
X114750000Y-134270000D02*
X114750000Y-134470000D01*
X75700000Y-163870000D02*
X73692526Y-161862526D01*
X53020000Y-137180000D02*
X51770000Y-137180000D01*
X117290000Y-134270000D02*
X114750000Y-134270000D01*
X33050000Y-121140000D02*
X33450000Y-121540000D01*
X113460000Y-124530000D02*
X111294800Y-124530000D01*
X111700000Y-132750000D02*
X111700000Y-131560000D01*
X109664800Y-78495200D02*
X109664800Y-115250000D01*
X116290000Y-124420000D02*
X116290000Y-119950000D01*
X68784652Y-156909600D02*
X73692526Y-161817474D01*
X53000000Y-71210000D02*
X53000000Y-71380000D01*
X115310000Y-135030000D02*
X115310000Y-139720000D01*
X74105052Y-162230000D02*
X75240000Y-162230000D01*
X59400000Y-72080000D02*
X61800800Y-69679200D01*
X49670000Y-153920000D02*
X56595052Y-153920000D01*
X115310000Y-139720000D02*
X114810000Y-140220000D01*
X30820000Y-78000000D02*
X30820000Y-77120000D01*
X109664800Y-115250000D02*
X109664800Y-122900000D01*
X46010000Y-105570000D02*
X33840000Y-105570000D01*
X111575000Y-131435000D02*
X114410000Y-134270000D01*
X33450000Y-121540000D02*
X50470000Y-121540000D01*
X61800800Y-69679200D02*
X96859200Y-69679200D01*
X128942500Y-87787500D02*
X128942500Y-91437500D01*
X65330000Y-149800000D02*
X64580000Y-150550000D01*
X134630000Y-88340000D02*
X129950000Y-88340000D01*
X77605000Y-83350000D02*
X77605000Y-83653160D01*
D23*
X141870000Y-76530000D02*
X124100000Y-76530000D01*
D22*
X65271464Y-100493822D02*
X65231464Y-100493822D01*
X59507095Y-134837095D02*
X60314190Y-134030000D01*
X53666264Y-101910462D02*
X52319424Y-100563622D01*
X77610000Y-67053160D02*
X76603160Y-68060000D01*
X60289190Y-84660000D02*
X59534390Y-83905200D01*
X48657960Y-67305200D02*
X59539390Y-67305200D01*
X31950000Y-83905200D02*
X29304800Y-81260000D01*
X65230000Y-67310000D02*
X64480000Y-68060000D01*
X122580000Y-97250000D02*
X123920000Y-95910000D01*
X77697928Y-116513160D02*
X76691088Y-117520000D01*
X52319424Y-100563622D02*
X31188422Y-100563622D01*
X89866920Y-116553080D02*
X88900000Y-117520000D01*
X89540000Y-150550000D02*
X89580000Y-150590000D01*
X58599390Y-69754800D02*
X60294190Y-68060000D01*
X135745000Y-92295000D02*
X135745000Y-89455000D01*
X120350000Y-170955000D02*
X120250000Y-171055000D01*
X60710000Y-117520000D02*
X80300000Y-117520000D01*
X47911640Y-83979800D02*
X47837040Y-83905200D01*
X81420857Y-149280857D02*
X82690000Y-150550000D01*
X120350000Y-165120000D02*
X120350000Y-170955000D01*
X128040000Y-172980000D02*
X128830000Y-172980000D01*
X119480000Y-80630000D02*
X119625000Y-80485000D01*
X89570000Y-134030000D02*
X90487312Y-133112688D01*
X58594390Y-86354800D02*
X60289190Y-84660000D01*
X120160000Y-87340000D02*
X121390000Y-86110000D01*
X90487312Y-133112688D02*
X90487312Y-133063080D01*
X58699390Y-152244800D02*
X60394190Y-150550000D01*
X120350000Y-165120000D02*
X120350000Y-165290000D01*
X82590000Y-68060000D02*
X82910000Y-68060000D01*
X90462312Y-83797688D02*
X90462312Y-83693080D01*
X60314190Y-134030000D02*
X89570000Y-134030000D01*
X120350000Y-163295000D02*
X120350000Y-165120000D01*
X91680000Y-68060000D02*
X91434232Y-68060000D01*
X89516178Y-101243822D02*
X90468776Y-100291224D01*
X89580000Y-150590000D02*
X90567312Y-149602688D01*
X120610000Y-79500000D02*
X122570000Y-77540000D01*
X128645000Y-87035000D02*
X128942500Y-87332500D01*
X77611464Y-99933822D02*
X77611464Y-100236982D01*
X112120000Y-97250000D02*
X122580000Y-97250000D01*
X129950000Y-88340000D02*
X128645000Y-87035000D01*
X45653160Y-70310000D02*
X48657960Y-67305200D01*
X111010000Y-80630000D02*
X119480000Y-80630000D01*
X123920000Y-95570000D02*
X124810000Y-95570000D01*
X59534390Y-83905200D02*
X48652960Y-83905200D01*
D24*
X117550000Y-117960000D02*
X118590000Y-117960000D01*
D22*
X122570000Y-77540000D02*
X122650000Y-77540000D01*
X106980000Y-167290000D02*
X106980000Y-163290000D01*
X48578360Y-83979800D02*
X47911640Y-83979800D01*
D24*
X118590000Y-117960000D02*
X120910000Y-120280000D01*
D22*
X121720000Y-159530000D02*
X121950000Y-159300000D01*
X77710000Y-149543160D02*
X76703160Y-150550000D01*
X117110000Y-68060000D02*
X122650000Y-73600000D01*
X82690000Y-150550000D02*
X83010000Y-150550000D01*
X29304800Y-147634800D02*
X29304800Y-130490000D01*
X120050000Y-81210000D02*
X120050000Y-81120000D01*
X60710000Y-117520000D02*
X59810000Y-116620000D01*
X77697928Y-116210000D02*
X77697928Y-116513160D01*
X60294190Y-68060000D02*
X91680000Y-68060000D01*
X125485000Y-122610000D02*
X125485000Y-134980000D01*
X81340857Y-132760857D02*
X80071714Y-134030000D01*
X29304800Y-81260000D02*
X29304800Y-75745200D01*
X110740000Y-159530000D02*
X121720000Y-159530000D01*
X106980000Y-170750000D02*
X106920000Y-170810000D01*
X81408785Y-116250857D02*
X81408785Y-116411215D01*
X65317928Y-116770000D02*
X64567928Y-117520000D01*
X142450000Y-88340000D02*
X134630000Y-88340000D01*
X125485000Y-118440000D02*
X125485000Y-122610000D01*
X65290000Y-133280000D02*
X65250000Y-133280000D01*
X60295654Y-101243822D02*
X89516178Y-101243822D01*
X29304800Y-114960000D02*
X29304800Y-98680000D01*
X135745000Y-89455000D02*
X134630000Y-88340000D01*
X47837040Y-83905200D02*
X31950000Y-83905200D01*
X59629014Y-101910462D02*
X53666264Y-101910462D01*
X124810000Y-95570000D02*
X125485000Y-94895000D01*
X77605000Y-83653160D02*
X76598160Y-84660000D01*
X32220000Y-150550000D02*
X29304800Y-147634800D01*
X59507095Y-134837095D02*
X59459390Y-134884800D01*
X90468776Y-100291224D02*
X90468776Y-100276902D01*
D24*
X123963695Y-124131305D02*
X125485000Y-122610000D01*
X123645000Y-120280000D02*
X125485000Y-118440000D01*
D22*
X77610000Y-66750000D02*
X77610000Y-67053160D01*
X48652960Y-83905200D02*
X48578360Y-83979800D01*
X125485000Y-134980000D02*
X125485000Y-155765000D01*
X116510000Y-83600000D02*
X119625000Y-80485000D01*
X120350000Y-165290000D02*
X128040000Y-172980000D01*
X90567312Y-149602688D02*
X90567312Y-149583080D01*
X121390000Y-86110000D02*
X121390000Y-82550000D01*
X29304800Y-75745200D02*
X34740000Y-70310000D01*
X120050000Y-80060000D02*
X120610000Y-79500000D01*
X65270000Y-67310000D02*
X65230000Y-67310000D01*
X106980000Y-167320000D02*
X105600000Y-168700000D01*
D24*
X118060000Y-121570000D02*
X119350000Y-120280000D01*
D22*
X121390000Y-82550000D02*
X120050000Y-81210000D01*
X120050000Y-81120000D02*
X120050000Y-80060000D01*
X77630000Y-132720000D02*
X77630000Y-133023160D01*
X60289190Y-84660000D02*
X89600000Y-84660000D01*
D24*
X119350000Y-120280000D02*
X120910000Y-120280000D01*
D22*
X106980000Y-167290000D02*
X106980000Y-170750000D01*
X81322321Y-99974679D02*
X82591464Y-101243822D01*
D24*
X120910000Y-120280000D02*
X123645000Y-120280000D01*
D22*
X81408785Y-116411215D02*
X80300000Y-117520000D01*
X65225000Y-83910000D02*
X64475000Y-84660000D01*
X125485000Y-155765000D02*
X121950000Y-159300000D01*
X106980000Y-163290000D02*
X110740000Y-159530000D01*
X56054590Y-133380000D02*
X32194800Y-133380000D01*
X77611464Y-100236982D02*
X76604624Y-101243822D01*
X59539390Y-67305200D02*
X60294190Y-68060000D01*
X77630000Y-133023160D02*
X76623160Y-134030000D01*
X128942500Y-87787500D02*
X127920000Y-88810000D01*
X60394190Y-150550000D02*
X89540000Y-150550000D01*
X122650000Y-77540000D02*
X122650000Y-81040000D01*
X65250000Y-133280000D02*
X64500000Y-134030000D01*
X105600000Y-168700000D02*
X94710000Y-168700000D01*
X80300000Y-117520000D02*
X88900000Y-117520000D01*
X65265000Y-83910000D02*
X65225000Y-83910000D01*
X90555240Y-116553080D02*
X89866920Y-116553080D01*
X122650000Y-73600000D02*
X122650000Y-75080000D01*
X60295654Y-101243822D02*
X59629014Y-101910462D01*
X127920000Y-88810000D02*
X125920000Y-88810000D01*
X119625000Y-80485000D02*
X120610000Y-79500000D01*
X121950000Y-159300000D02*
X120730000Y-160520000D01*
X123920000Y-95910000D02*
X123920000Y-95570000D01*
X125485000Y-94895000D02*
X125485000Y-118440000D01*
X120350000Y-160900000D02*
X120350000Y-163295000D01*
X29304800Y-98680000D02*
X29304800Y-81260000D01*
D24*
X121301305Y-124131305D02*
X123963695Y-124131305D01*
D22*
X31188422Y-100563622D02*
X29304800Y-98680000D01*
X77710000Y-149240000D02*
X77710000Y-149543160D01*
X29304800Y-130490000D02*
X29304800Y-114960000D01*
D24*
X124735000Y-135730000D02*
X125485000Y-134980000D01*
D22*
X91434232Y-68060000D02*
X90467312Y-67093080D01*
X122650000Y-75080000D02*
X122650000Y-77540000D01*
X32194800Y-133380000D02*
X29304800Y-130490000D01*
X120730000Y-160520000D02*
X120350000Y-160900000D01*
X65357928Y-116770000D02*
X65317928Y-116770000D01*
X65231464Y-100493822D02*
X64481464Y-101243822D01*
X128942500Y-91437500D02*
X125485000Y-94895000D01*
X93580000Y-169830000D02*
X93580000Y-170625000D01*
X60394190Y-150550000D02*
X32220000Y-150550000D01*
X59459390Y-134884800D02*
X57559390Y-134884800D01*
X94710000Y-168700000D02*
X93580000Y-169830000D01*
X57559390Y-134884800D02*
X56054590Y-133380000D01*
X106980000Y-167290000D02*
X106980000Y-167320000D01*
X81320857Y-66790857D02*
X82590000Y-68060000D01*
D23*
X124100000Y-76530000D02*
X122650000Y-75080000D01*
D22*
X143950000Y-89840000D02*
X142450000Y-88340000D01*
X82585000Y-84660000D02*
X82905000Y-84660000D01*
X128942500Y-87332500D02*
X128942500Y-87787500D01*
X60385859Y-117520000D02*
X60710000Y-117520000D01*
X89600000Y-84660000D02*
X90462312Y-83797688D01*
X30964800Y-116620000D02*
X29304800Y-114960000D01*
X120050000Y-82560000D02*
X120050000Y-81120000D01*
X59810000Y-116620000D02*
X30964800Y-116620000D01*
X65370000Y-149800000D02*
X65330000Y-149800000D01*
X122650000Y-81040000D02*
X128645000Y-87035000D01*
X58691059Y-119214800D02*
X60385859Y-117520000D01*
X91680000Y-68060000D02*
X117110000Y-68060000D01*
D24*
X124610000Y-135730000D02*
X124735000Y-135730000D01*
D22*
X58600854Y-102938622D02*
X60295654Y-101243822D01*
X82591464Y-101243822D02*
X82911464Y-101243822D01*
X81315857Y-83390857D02*
X82585000Y-84660000D01*
X58619390Y-135724800D02*
X59507095Y-134837095D01*
X121840000Y-95570000D02*
X123920000Y-95570000D01*
X112100000Y-97270000D02*
X112120000Y-97250000D01*
X34740000Y-70310000D02*
X45653160Y-70310000D01*
M02*
