G04 #@! TF.GenerationSoftware,KiCad,Pcbnew,8.0.3-8.0.3-0~ubuntu20.04.1*
G04 #@! TF.CreationDate,2024-09-26T03:44:41-03:00*
G04 #@! TF.ProjectId,EEG_board,4545475f-626f-4617-9264-2e6b69636164,rev?*
G04 #@! TF.SameCoordinates,Original*
G04 #@! TF.FileFunction,Soldermask,Bot*
G04 #@! TF.FilePolarity,Negative*
%FSLAX46Y46*%
G04 Gerber Fmt 4.6, Leading zero omitted, Abs format (unit mm)*
G04 Created by KiCad (PCBNEW 8.0.3-8.0.3-0~ubuntu20.04.1) date 2024-09-26 03:44:41*
%MOMM*%
%LPD*%
G01*
G04 APERTURE LIST*
G04 Aperture macros list*
%AMRoundRect*
0 Rectangle with rounded corners*
0 $1 Rounding radius*
0 $2 $3 $4 $5 $6 $7 $8 $9 X,Y pos of 4 corners*
0 Add a 4 corners polygon primitive as box body*
4,1,4,$2,$3,$4,$5,$6,$7,$8,$9,$2,$3,0*
0 Add four circle primitives for the rounded corners*
1,1,$1+$1,$2,$3*
1,1,$1+$1,$4,$5*
1,1,$1+$1,$6,$7*
1,1,$1+$1,$8,$9*
0 Add four rect primitives between the rounded corners*
20,1,$1+$1,$2,$3,$4,$5,0*
20,1,$1+$1,$4,$5,$6,$7,0*
20,1,$1+$1,$6,$7,$8,$9,0*
20,1,$1+$1,$8,$9,$2,$3,0*%
%AMFreePoly0*
4,1,19,0.500000,-0.750000,0.000000,-0.750000,0.000000,-0.744911,-0.071157,-0.744911,-0.207708,-0.704816,-0.327430,-0.627875,-0.420627,-0.520320,-0.479746,-0.390866,-0.500000,-0.250000,-0.500000,0.250000,-0.479746,0.390866,-0.420627,0.520320,-0.327430,0.627875,-0.207708,0.704816,-0.071157,0.744911,0.000000,0.744911,0.000000,0.750000,0.500000,0.750000,0.500000,-0.750000,0.500000,-0.750000,
$1*%
%AMFreePoly1*
4,1,19,0.000000,0.744911,0.071157,0.744911,0.207708,0.704816,0.327430,0.627875,0.420627,0.520320,0.479746,0.390866,0.500000,0.250000,0.500000,-0.250000,0.479746,-0.390866,0.420627,-0.520320,0.327430,-0.627875,0.207708,-0.704816,0.071157,-0.744911,0.000000,-0.744911,0.000000,-0.750000,-0.500000,-0.750000,-0.500000,0.750000,0.000000,0.750000,0.000000,0.744911,0.000000,0.744911,
$1*%
G04 Aperture macros list end*
%ADD10C,1.800000*%
%ADD11RoundRect,0.250000X0.600000X0.750000X-0.600000X0.750000X-0.600000X-0.750000X0.600000X-0.750000X0*%
%ADD12O,1.700000X2.000000*%
%ADD13R,1.700000X1.700000*%
%ADD14O,1.700000X1.700000*%
%ADD15R,1.600000X1.600000*%
%ADD16C,1.600000*%
%ADD17R,1.300000X1.300000*%
%ADD18C,1.300000*%
%ADD19O,4.000000X2.000000*%
%ADD20RoundRect,0.225000X-0.250000X0.225000X-0.250000X-0.225000X0.250000X-0.225000X0.250000X0.225000X0*%
%ADD21RoundRect,0.250000X-0.475000X0.250000X-0.475000X-0.250000X0.475000X-0.250000X0.475000X0.250000X0*%
%ADD22RoundRect,0.250000X0.475000X-0.250000X0.475000X0.250000X-0.475000X0.250000X-0.475000X-0.250000X0*%
%ADD23RoundRect,0.225000X0.250000X-0.225000X0.250000X0.225000X-0.250000X0.225000X-0.250000X-0.225000X0*%
%ADD24RoundRect,0.250000X0.250000X0.475000X-0.250000X0.475000X-0.250000X-0.475000X0.250000X-0.475000X0*%
%ADD25FreePoly0,0.000000*%
%ADD26FreePoly1,0.000000*%
%ADD27RoundRect,0.225000X0.225000X0.250000X-0.225000X0.250000X-0.225000X-0.250000X0.225000X-0.250000X0*%
%ADD28RoundRect,0.225000X-0.225000X-0.250000X0.225000X-0.250000X0.225000X0.250000X-0.225000X0.250000X0*%
G04 APERTURE END LIST*
D10*
X121540000Y-62465000D03*
X119000000Y-62465000D03*
X113920000Y-62465000D03*
X111380000Y-62465000D03*
X108840000Y-62465000D03*
D11*
X40610000Y-172500000D03*
D12*
X38110000Y-172500000D03*
D13*
X128830000Y-172980000D03*
D14*
X128830000Y-170440000D03*
X131370000Y-172980000D03*
X131370000Y-170440000D03*
X133910000Y-172980000D03*
X133910000Y-170440000D03*
D10*
X32550000Y-146880000D03*
X32550000Y-144380000D03*
X32540000Y-114030000D03*
X32540000Y-111530000D03*
D13*
X135745000Y-92295000D03*
D14*
X138285000Y-92295000D03*
X135745000Y-94835000D03*
X138285000Y-94835000D03*
X135745000Y-97375000D03*
X138285000Y-97375000D03*
D13*
X70610000Y-161690000D03*
D14*
X68070000Y-161690000D03*
X65530000Y-161690000D03*
D10*
X101920000Y-171055000D03*
X104420000Y-171055000D03*
X106920000Y-171055000D03*
X109420000Y-171055000D03*
D15*
X145410800Y-165599200D03*
D16*
X145410800Y-163059200D03*
X145410800Y-160519200D03*
X145410800Y-157979200D03*
X145410800Y-155439200D03*
X145410800Y-152899200D03*
X145410800Y-150359200D03*
X145410800Y-147819200D03*
X145410800Y-145279200D03*
X145410800Y-142739200D03*
X145410800Y-140199200D03*
X145410800Y-137659200D03*
X145410800Y-135119200D03*
X145410800Y-132579200D03*
X145410800Y-130039200D03*
X145410800Y-127499200D03*
X145410800Y-124959200D03*
X145410800Y-122419200D03*
X145410800Y-119879200D03*
X145410800Y-117339200D03*
X145410800Y-114799200D03*
X145410800Y-112259200D03*
X145410800Y-109719200D03*
X145410800Y-107179200D03*
X130170800Y-107179200D03*
X130170800Y-109719200D03*
X130170800Y-112259200D03*
X130170800Y-114799200D03*
X130170800Y-117339200D03*
X130170800Y-119879200D03*
X130170800Y-122419200D03*
X130170800Y-124959200D03*
X130170800Y-127499200D03*
X130170800Y-130039200D03*
X130170800Y-132579200D03*
X130170800Y-135119200D03*
X130170800Y-137659200D03*
X130170800Y-140199200D03*
X130170800Y-142739200D03*
X130170800Y-145279200D03*
X130170800Y-147819200D03*
X130170800Y-150359200D03*
X130170800Y-152899200D03*
X130170800Y-155439200D03*
X130170800Y-157979200D03*
X130170800Y-160519200D03*
X130170800Y-163059200D03*
X130170800Y-165599200D03*
X132710800Y-163059200D03*
X142870800Y-119879200D03*
X140330800Y-119879200D03*
X137790800Y-119879200D03*
X135250800Y-119879200D03*
X132710800Y-119879200D03*
D15*
X142360000Y-159300000D03*
D16*
X142360000Y-156760000D03*
X142360000Y-154220000D03*
X142360000Y-151680000D03*
X142360000Y-149140000D03*
D17*
X132609200Y-152629200D03*
D18*
X134609200Y-152629200D03*
X136609200Y-152629200D03*
X136609200Y-150629200D03*
X134609200Y-150629200D03*
X132609200Y-150629200D03*
X136520800Y-164869200D03*
X139060800Y-164869200D03*
D13*
X127165000Y-57500000D03*
D14*
X129705000Y-57500000D03*
D11*
X49740000Y-172500000D03*
D12*
X47240000Y-172500000D03*
D10*
X115350000Y-171055000D03*
X117850000Y-171055000D03*
X120350000Y-171055000D03*
X122850000Y-171055000D03*
D19*
X145200000Y-63580000D03*
X145200000Y-68580000D03*
D13*
X143950000Y-89840000D03*
D14*
X146490000Y-89840000D03*
X143950000Y-92380000D03*
X146490000Y-92380000D03*
X143950000Y-94920000D03*
X146490000Y-94920000D03*
X143950000Y-97460000D03*
X146490000Y-97460000D03*
D10*
X88580000Y-171055000D03*
X91080000Y-171055000D03*
X93580000Y-171055000D03*
X96080000Y-171055000D03*
D13*
X134575000Y-57500000D03*
D14*
X137115000Y-57500000D03*
D11*
X59730000Y-172500000D03*
D12*
X57230000Y-172500000D03*
D10*
X115350000Y-163295000D03*
X117850000Y-163295000D03*
X120350000Y-163295000D03*
X122850000Y-163295000D03*
D13*
X91872500Y-160809999D03*
D14*
X89332500Y-160809999D03*
X86792500Y-160809999D03*
D10*
X32550000Y-130980000D03*
X32550000Y-128480000D03*
X32550000Y-97770000D03*
X32550000Y-95270000D03*
D13*
X65590000Y-165320000D03*
D14*
X68130000Y-165320000D03*
X70670000Y-165320000D03*
D10*
X101980000Y-163330000D03*
X104480000Y-163330000D03*
X106980000Y-163330000D03*
X109480000Y-163330000D03*
X32550000Y-67510000D03*
X32550000Y-65010000D03*
X32505000Y-81990000D03*
X32505000Y-79490000D03*
D13*
X80620000Y-168530000D03*
D14*
X78080000Y-168530000D03*
D20*
X60422950Y-75455000D03*
X60422950Y-77005000D03*
D21*
X84461464Y-101453822D03*
X84461464Y-103353822D03*
D22*
X60100000Y-153340000D03*
X60100000Y-151440000D03*
X71801464Y-102133822D03*
X71801464Y-100233822D03*
D23*
X95460000Y-61815000D03*
X95460000Y-60265000D03*
X67850000Y-144515000D03*
X67850000Y-142965000D03*
X93910000Y-129330000D03*
X93910000Y-127780000D03*
D22*
X69500000Y-62350000D03*
X69500000Y-60450000D03*
D23*
X57880000Y-153005000D03*
X57880000Y-151455000D03*
D21*
X84480000Y-134240000D03*
X84480000Y-136140000D03*
D23*
X67750000Y-62025000D03*
X67750000Y-60475000D03*
D22*
X71900000Y-151440000D03*
X71900000Y-149540000D03*
D24*
X45212928Y-113905000D03*
X43312928Y-113905000D03*
D23*
X88345000Y-84085000D03*
X88345000Y-82535000D03*
D22*
X86435000Y-84400000D03*
X86435000Y-82500000D03*
X71795000Y-85550000D03*
X71795000Y-83650000D03*
D25*
X76555000Y-75680000D03*
D26*
X77855000Y-75680000D03*
D23*
X57780000Y-70515000D03*
X57780000Y-68965000D03*
D22*
X54587928Y-111410000D03*
X54587928Y-109510000D03*
D20*
X87767928Y-110115000D03*
X87767928Y-111665000D03*
D24*
X48212928Y-110305000D03*
X46312928Y-110305000D03*
D23*
X67770000Y-127995000D03*
X67770000Y-126445000D03*
X57790000Y-119795000D03*
X57790000Y-118245000D03*
D20*
X69637928Y-118075000D03*
X69637928Y-119625000D03*
D24*
X48145000Y-126815000D03*
X46245000Y-126815000D03*
D22*
X86527928Y-117260000D03*
X86527928Y-115360000D03*
D21*
X117790000Y-137290000D03*
X117790000Y-139190000D03*
D24*
X45225000Y-146935000D03*
X43325000Y-146935000D03*
D22*
X54501464Y-95133822D03*
X54501464Y-93233822D03*
D25*
X50320000Y-130220000D03*
D26*
X51620000Y-130220000D03*
D25*
X50387928Y-113710000D03*
D26*
X51687928Y-113710000D03*
D27*
X44950000Y-62645000D03*
X43400000Y-62645000D03*
D21*
X67755000Y-84890000D03*
X67755000Y-86790000D03*
D24*
X48225000Y-143335000D03*
X46325000Y-143335000D03*
D22*
X71820000Y-134920000D03*
X71820000Y-133020000D03*
D23*
X82281464Y-97058822D03*
X82281464Y-95508822D03*
D22*
X58627950Y-60800000D03*
X58627950Y-58900000D03*
D21*
X112970000Y-130070000D03*
X112970000Y-131970000D03*
D22*
X54520000Y-127920000D03*
X54520000Y-126020000D03*
X86460000Y-133770000D03*
X86460000Y-131870000D03*
D23*
X72001464Y-95158822D03*
X72001464Y-93608822D03*
X54170000Y-120245000D03*
X54170000Y-118695000D03*
D22*
X60000000Y-70850000D03*
X60000000Y-68950000D03*
D21*
X84560000Y-150760000D03*
X84560000Y-152660000D03*
D22*
X60001464Y-104033822D03*
X60001464Y-102133822D03*
X69587928Y-111810000D03*
X69587928Y-109910000D03*
D20*
X60427950Y-58855000D03*
X60427950Y-60405000D03*
D21*
X85780000Y-126640000D03*
X85780000Y-128540000D03*
D23*
X56387928Y-111335000D03*
X56387928Y-109785000D03*
D27*
X45037928Y-112105000D03*
X43487928Y-112105000D03*
D23*
X82280000Y-63875000D03*
X82280000Y-62325000D03*
X72100000Y-144465000D03*
X72100000Y-142915000D03*
D20*
X110290000Y-126355000D03*
X110290000Y-127905000D03*
D23*
X73570000Y-134895000D03*
X73570000Y-133345000D03*
X67751464Y-95208822D03*
X67751464Y-93658822D03*
D20*
X95990000Y-127355000D03*
X95990000Y-128905000D03*
X95760000Y-92765000D03*
X95760000Y-94315000D03*
D27*
X47926464Y-92028822D03*
X46376464Y-92028822D03*
D22*
X60087928Y-120310000D03*
X60087928Y-118410000D03*
D23*
X71995000Y-78575000D03*
X71995000Y-77025000D03*
X93977928Y-112820000D03*
X93977928Y-111270000D03*
D21*
X84547928Y-117730000D03*
X84547928Y-119630000D03*
D27*
X44945000Y-79245000D03*
X43395000Y-79245000D03*
D22*
X71887928Y-118410000D03*
X71887928Y-116510000D03*
D25*
X86700000Y-140590000D03*
D26*
X88000000Y-140590000D03*
D23*
X56300000Y-61875000D03*
X56300000Y-60325000D03*
D20*
X87780000Y-143145000D03*
X87780000Y-144695000D03*
D23*
X88370000Y-133455000D03*
X88370000Y-131905000D03*
D25*
X76647928Y-108540000D03*
D26*
X77947928Y-108540000D03*
D21*
X84455000Y-84870000D03*
X84455000Y-86770000D03*
D24*
X45126464Y-97628822D03*
X43226464Y-97628822D03*
D20*
X69545000Y-85215000D03*
X69545000Y-86765000D03*
D23*
X82367928Y-113335000D03*
X82367928Y-111785000D03*
X57800000Y-136485000D03*
X57800000Y-134935000D03*
X54300000Y-153315000D03*
X54300000Y-151765000D03*
D20*
X69857500Y-170115000D03*
X69857500Y-171665000D03*
D27*
X44970000Y-128615000D03*
X43420000Y-128615000D03*
D20*
X82807928Y-118085000D03*
X82807928Y-119635000D03*
D23*
X67745000Y-78625000D03*
X67745000Y-77075000D03*
D20*
X95570000Y-109245000D03*
X95570000Y-110795000D03*
D23*
X93885000Y-79960000D03*
X93885000Y-78410000D03*
X56320000Y-127845000D03*
X56320000Y-126295000D03*
D20*
X87680000Y-60655000D03*
X87680000Y-62205000D03*
X87681464Y-93838822D03*
X87681464Y-95388822D03*
D22*
X73851464Y-95483822D03*
X73851464Y-93583822D03*
D23*
X72020000Y-127945000D03*
X72020000Y-126395000D03*
X57781464Y-103698822D03*
X57781464Y-102148822D03*
D22*
X73950000Y-144790000D03*
X73950000Y-142890000D03*
D20*
X60429414Y-92038822D03*
X60429414Y-93588822D03*
D22*
X55940000Y-120350000D03*
X55940000Y-118450000D03*
D23*
X88437928Y-116945000D03*
X88437928Y-115395000D03*
X67837928Y-111485000D03*
X67837928Y-109935000D03*
D20*
X82740000Y-134595000D03*
X82740000Y-136145000D03*
X95460000Y-76395000D03*
X95460000Y-77945000D03*
D23*
X88450000Y-149975000D03*
X88450000Y-148425000D03*
X82300000Y-129845000D03*
X82300000Y-128295000D03*
D22*
X80560000Y-64030000D03*
X80560000Y-62130000D03*
D23*
X73650000Y-151415000D03*
X73650000Y-149865000D03*
D22*
X58727950Y-143290000D03*
X58727950Y-141390000D03*
X86540000Y-150290000D03*
X86540000Y-148390000D03*
D20*
X67347500Y-170115000D03*
X67347500Y-171665000D03*
D21*
X67761464Y-101473822D03*
X67761464Y-103373822D03*
D27*
X80120000Y-163560000D03*
X78570000Y-163560000D03*
D24*
X45145000Y-130415000D03*
X43245000Y-130415000D03*
D25*
X50301464Y-97433822D03*
D26*
X51601464Y-97433822D03*
D21*
X85847928Y-110130000D03*
X85847928Y-112030000D03*
D22*
X55995000Y-87500000D03*
X55995000Y-85600000D03*
D20*
X87700000Y-126625000D03*
X87700000Y-128175000D03*
D21*
X67760000Y-68290000D03*
X67760000Y-70190000D03*
D20*
X60515878Y-108315000D03*
X60515878Y-109865000D03*
D25*
X55300000Y-140290000D03*
D26*
X56600000Y-140290000D03*
D20*
X69551464Y-101798822D03*
X69551464Y-103348822D03*
X69550000Y-68615000D03*
X69550000Y-70165000D03*
D28*
X79900000Y-162060000D03*
X81450000Y-162060000D03*
D20*
X96400000Y-141965000D03*
X96400000Y-143515000D03*
D21*
X115780000Y-137290000D03*
X115780000Y-139190000D03*
D23*
X54201464Y-104008822D03*
X54201464Y-102458822D03*
D20*
X82820000Y-151115000D03*
X82820000Y-152665000D03*
X82720000Y-68625000D03*
X82720000Y-70175000D03*
D23*
X82380000Y-146365000D03*
X82380000Y-144815000D03*
D25*
X76560000Y-59080000D03*
D26*
X77860000Y-59080000D03*
D25*
X55287928Y-107260000D03*
D26*
X56587928Y-107260000D03*
D22*
X69495000Y-78950000D03*
X69495000Y-77050000D03*
D23*
X56295000Y-78475000D03*
X56295000Y-76925000D03*
D22*
X73937928Y-111760000D03*
X73937928Y-109860000D03*
D23*
X72000000Y-61975000D03*
X72000000Y-60425000D03*
D20*
X114770000Y-130255000D03*
X114770000Y-131805000D03*
D27*
X47920000Y-75445000D03*
X46370000Y-75445000D03*
X47945000Y-124815000D03*
X46395000Y-124815000D03*
D20*
X82715000Y-85225000D03*
X82715000Y-86775000D03*
D24*
X48120000Y-77445000D03*
X46220000Y-77445000D03*
D23*
X115610000Y-119765000D03*
X115610000Y-118215000D03*
X88351464Y-100668822D03*
X88351464Y-99118822D03*
D25*
X76660000Y-141570000D03*
D26*
X77960000Y-141570000D03*
D23*
X73637928Y-118385000D03*
X73637928Y-116835000D03*
X88350000Y-67485000D03*
X88350000Y-65935000D03*
D22*
X80647928Y-113490000D03*
X80647928Y-111590000D03*
X86440000Y-67800000D03*
X86440000Y-65900000D03*
D27*
X48012928Y-108305000D03*
X46462928Y-108305000D03*
D25*
X55220000Y-123770000D03*
D26*
X56520000Y-123770000D03*
D20*
X115860000Y-126395000D03*
X115860000Y-127945000D03*
D21*
X67780000Y-134260000D03*
X67780000Y-136160000D03*
D23*
X73551464Y-102108822D03*
X73551464Y-100558822D03*
X54195000Y-87425000D03*
X54195000Y-85875000D03*
D22*
X80561464Y-97213822D03*
X80561464Y-95313822D03*
D23*
X94020000Y-145775000D03*
X94020000Y-144225000D03*
D22*
X80660000Y-146520000D03*
X80660000Y-144620000D03*
X69520000Y-128320000D03*
X69520000Y-126420000D03*
X73850000Y-62300000D03*
X73850000Y-60400000D03*
D20*
X69650000Y-151105000D03*
X69650000Y-152655000D03*
D25*
X50400000Y-146740000D03*
D26*
X51700000Y-146740000D03*
D24*
X45125000Y-64445000D03*
X43225000Y-64445000D03*
D21*
X85761464Y-93853822D03*
X85761464Y-95753822D03*
D27*
X45050000Y-145135000D03*
X43500000Y-145135000D03*
D25*
X76580000Y-125050000D03*
D26*
X77880000Y-125050000D03*
D23*
X93890000Y-63360000D03*
X93890000Y-61810000D03*
D25*
X50295000Y-80850000D03*
D26*
X51595000Y-80850000D03*
D24*
X48126464Y-94028822D03*
X46226464Y-94028822D03*
D22*
X80580000Y-130000000D03*
X80580000Y-128100000D03*
D23*
X54200000Y-70825000D03*
X54200000Y-69275000D03*
D21*
X85755000Y-77270000D03*
X85755000Y-79170000D03*
D20*
X60527950Y-141345000D03*
X60527950Y-142895000D03*
D24*
X48125000Y-60845000D03*
X46225000Y-60845000D03*
D22*
X54500000Y-61950000D03*
X54500000Y-60050000D03*
D24*
X45120000Y-81045000D03*
X43220000Y-81045000D03*
D25*
X55195000Y-74400000D03*
D26*
X56495000Y-74400000D03*
D20*
X69570000Y-134585000D03*
X69570000Y-136135000D03*
D22*
X80555000Y-80630000D03*
X80555000Y-78730000D03*
D23*
X73545000Y-85525000D03*
X73545000Y-83975000D03*
X54220000Y-136795000D03*
X54220000Y-135245000D03*
D22*
X59995000Y-87450000D03*
X59995000Y-85550000D03*
D25*
X86687928Y-107560000D03*
D26*
X87987928Y-107560000D03*
D25*
X86600000Y-58100000D03*
D26*
X87900000Y-58100000D03*
D22*
X56020000Y-136870000D03*
X56020000Y-134970000D03*
D21*
X67847928Y-117750000D03*
X67847928Y-119650000D03*
D23*
X72087928Y-111435000D03*
X72087928Y-109885000D03*
D25*
X55201464Y-90983822D03*
D26*
X56501464Y-90983822D03*
D27*
X44951464Y-95828822D03*
X43401464Y-95828822D03*
D22*
X69600000Y-144840000D03*
X69600000Y-142940000D03*
D21*
X114050000Y-126250000D03*
X114050000Y-128150000D03*
D22*
X73845000Y-78900000D03*
X73845000Y-77000000D03*
D23*
X82275000Y-80475000D03*
X82275000Y-78925000D03*
D22*
X73870000Y-128270000D03*
X73870000Y-126370000D03*
X58715878Y-110260000D03*
X58715878Y-108360000D03*
X113780000Y-119960000D03*
X113780000Y-118060000D03*
X54495000Y-78550000D03*
X54495000Y-76650000D03*
D20*
X60447950Y-124825000D03*
X60447950Y-126375000D03*
D21*
X112030000Y-126230000D03*
X112030000Y-128130000D03*
D22*
X58629414Y-93983822D03*
X58629414Y-92083822D03*
D27*
X48025000Y-141335000D03*
X46475000Y-141335000D03*
D25*
X86620000Y-124070000D03*
D26*
X87920000Y-124070000D03*
D23*
X93891464Y-96543822D03*
X93891464Y-94993822D03*
X73550000Y-68925000D03*
X73550000Y-67375000D03*
D25*
X55200000Y-57800000D03*
D26*
X56500000Y-57800000D03*
D20*
X82721464Y-101808822D03*
X82721464Y-103358822D03*
D23*
X56301464Y-95058822D03*
X56301464Y-93508822D03*
D20*
X87675000Y-77255000D03*
X87675000Y-78805000D03*
D22*
X71800000Y-68950000D03*
X71800000Y-67050000D03*
D25*
X76561464Y-92263822D03*
D26*
X77861464Y-92263822D03*
D22*
X58622950Y-77400000D03*
X58622950Y-75500000D03*
D23*
X57775000Y-87115000D03*
X57775000Y-85565000D03*
X56400000Y-144365000D03*
X56400000Y-142815000D03*
D22*
X58647950Y-126770000D03*
X58647950Y-124870000D03*
D21*
X85760000Y-60670000D03*
X85760000Y-62570000D03*
D25*
X86601464Y-91283822D03*
D26*
X87901464Y-91283822D03*
D27*
X47925000Y-58845000D03*
X46375000Y-58845000D03*
D22*
X86441464Y-100983822D03*
X86441464Y-99083822D03*
D21*
X67860000Y-150780000D03*
X67860000Y-152680000D03*
D22*
X56001464Y-104083822D03*
X56001464Y-102183822D03*
D25*
X86595000Y-74700000D03*
D26*
X87895000Y-74700000D03*
D22*
X54600000Y-144440000D03*
X54600000Y-142540000D03*
D21*
X84460000Y-68270000D03*
X84460000Y-70170000D03*
D22*
X69501464Y-95533822D03*
X69501464Y-93633822D03*
D25*
X50300000Y-64250000D03*
D26*
X51600000Y-64250000D03*
D22*
X56000000Y-70900000D03*
X56000000Y-69000000D03*
X60020000Y-136820000D03*
X60020000Y-134920000D03*
X56100000Y-153390000D03*
X56100000Y-151490000D03*
D21*
X85860000Y-143160000D03*
X85860000Y-145060000D03*
M02*
