G04 #@! TF.GenerationSoftware,KiCad,Pcbnew,8.0.3-8.0.3-0~ubuntu20.04.1*
G04 #@! TF.CreationDate,2024-09-26T03:44:41-03:00*
G04 #@! TF.ProjectId,EEG_board,4545475f-626f-4617-9264-2e6b69636164,rev?*
G04 #@! TF.SameCoordinates,Original*
G04 #@! TF.FileFunction,Paste,Bot*
G04 #@! TF.FilePolarity,Positive*
%FSLAX46Y46*%
G04 Gerber Fmt 4.6, Leading zero omitted, Abs format (unit mm)*
G04 Created by KiCad (PCBNEW 8.0.3-8.0.3-0~ubuntu20.04.1) date 2024-09-26 03:44:41*
%MOMM*%
%LPD*%
G01*
G04 APERTURE LIST*
G04 Aperture macros list*
%AMRoundRect*
0 Rectangle with rounded corners*
0 $1 Rounding radius*
0 $2 $3 $4 $5 $6 $7 $8 $9 X,Y pos of 4 corners*
0 Add a 4 corners polygon primitive as box body*
4,1,4,$2,$3,$4,$5,$6,$7,$8,$9,$2,$3,0*
0 Add four circle primitives for the rounded corners*
1,1,$1+$1,$2,$3*
1,1,$1+$1,$4,$5*
1,1,$1+$1,$6,$7*
1,1,$1+$1,$8,$9*
0 Add four rect primitives between the rounded corners*
20,1,$1+$1,$2,$3,$4,$5,0*
20,1,$1+$1,$4,$5,$6,$7,0*
20,1,$1+$1,$6,$7,$8,$9,0*
20,1,$1+$1,$8,$9,$2,$3,0*%
G04 Aperture macros list end*
%ADD10O,4.000000X2.000000*%
%ADD11RoundRect,0.225000X-0.250000X0.225000X-0.250000X-0.225000X0.250000X-0.225000X0.250000X0.225000X0*%
%ADD12RoundRect,0.250000X-0.475000X0.250000X-0.475000X-0.250000X0.475000X-0.250000X0.475000X0.250000X0*%
%ADD13RoundRect,0.250000X0.475000X-0.250000X0.475000X0.250000X-0.475000X0.250000X-0.475000X-0.250000X0*%
%ADD14RoundRect,0.225000X0.250000X-0.225000X0.250000X0.225000X-0.250000X0.225000X-0.250000X-0.225000X0*%
%ADD15RoundRect,0.250000X0.250000X0.475000X-0.250000X0.475000X-0.250000X-0.475000X0.250000X-0.475000X0*%
%ADD16RoundRect,0.225000X0.225000X0.250000X-0.225000X0.250000X-0.225000X-0.250000X0.225000X-0.250000X0*%
%ADD17RoundRect,0.225000X-0.225000X-0.250000X0.225000X-0.250000X0.225000X0.250000X-0.225000X0.250000X0*%
G04 APERTURE END LIST*
D10*
X145200000Y-63580000D03*
D11*
X60422950Y-75455000D03*
X60422950Y-77005000D03*
D12*
X84461464Y-101453822D03*
X84461464Y-103353822D03*
D13*
X60100000Y-153340000D03*
X60100000Y-151440000D03*
X71801464Y-102133822D03*
X71801464Y-100233822D03*
D14*
X95460000Y-61815000D03*
X95460000Y-60265000D03*
X67850000Y-144515000D03*
X67850000Y-142965000D03*
X93910000Y-129330000D03*
X93910000Y-127780000D03*
D13*
X69500000Y-62350000D03*
X69500000Y-60450000D03*
D14*
X57880000Y-153005000D03*
X57880000Y-151455000D03*
D12*
X84480000Y-134240000D03*
X84480000Y-136140000D03*
D14*
X67750000Y-62025000D03*
X67750000Y-60475000D03*
D13*
X71900000Y-151440000D03*
X71900000Y-149540000D03*
D15*
X45212928Y-113905000D03*
X43312928Y-113905000D03*
D14*
X88345000Y-84085000D03*
X88345000Y-82535000D03*
D13*
X86435000Y-84400000D03*
X86435000Y-82500000D03*
X71795000Y-85550000D03*
X71795000Y-83650000D03*
D14*
X57780000Y-70515000D03*
X57780000Y-68965000D03*
D13*
X54587928Y-111410000D03*
X54587928Y-109510000D03*
D11*
X87767928Y-110115000D03*
X87767928Y-111665000D03*
D15*
X48212928Y-110305000D03*
X46312928Y-110305000D03*
D14*
X67770000Y-127995000D03*
X67770000Y-126445000D03*
X57790000Y-119795000D03*
X57790000Y-118245000D03*
D11*
X69637928Y-118075000D03*
X69637928Y-119625000D03*
D15*
X48145000Y-126815000D03*
X46245000Y-126815000D03*
D13*
X86527928Y-117260000D03*
X86527928Y-115360000D03*
D12*
X117790000Y-137290000D03*
X117790000Y-139190000D03*
D15*
X45225000Y-146935000D03*
X43325000Y-146935000D03*
D13*
X54501464Y-95133822D03*
X54501464Y-93233822D03*
D16*
X44950000Y-62645000D03*
X43400000Y-62645000D03*
D12*
X67755000Y-84890000D03*
X67755000Y-86790000D03*
D15*
X48225000Y-143335000D03*
X46325000Y-143335000D03*
D13*
X71820000Y-134920000D03*
X71820000Y-133020000D03*
D14*
X82281464Y-97058822D03*
X82281464Y-95508822D03*
D13*
X58627950Y-60800000D03*
X58627950Y-58900000D03*
D12*
X112970000Y-130070000D03*
X112970000Y-131970000D03*
D13*
X54520000Y-127920000D03*
X54520000Y-126020000D03*
X86460000Y-133770000D03*
X86460000Y-131870000D03*
D14*
X72001464Y-95158822D03*
X72001464Y-93608822D03*
X54170000Y-120245000D03*
X54170000Y-118695000D03*
D13*
X60000000Y-70850000D03*
X60000000Y-68950000D03*
D12*
X84560000Y-150760000D03*
X84560000Y-152660000D03*
D13*
X60001464Y-104033822D03*
X60001464Y-102133822D03*
X69587928Y-111810000D03*
X69587928Y-109910000D03*
D11*
X60427950Y-58855000D03*
X60427950Y-60405000D03*
D12*
X85780000Y-126640000D03*
X85780000Y-128540000D03*
D14*
X56387928Y-111335000D03*
X56387928Y-109785000D03*
D16*
X45037928Y-112105000D03*
X43487928Y-112105000D03*
D14*
X82280000Y-63875000D03*
X82280000Y-62325000D03*
X72100000Y-144465000D03*
X72100000Y-142915000D03*
D11*
X110290000Y-126355000D03*
X110290000Y-127905000D03*
D14*
X73570000Y-134895000D03*
X73570000Y-133345000D03*
X67751464Y-95208822D03*
X67751464Y-93658822D03*
D11*
X95990000Y-127355000D03*
X95990000Y-128905000D03*
X95760000Y-92765000D03*
X95760000Y-94315000D03*
D16*
X47926464Y-92028822D03*
X46376464Y-92028822D03*
D13*
X60087928Y-120310000D03*
X60087928Y-118410000D03*
D14*
X71995000Y-78575000D03*
X71995000Y-77025000D03*
X93977928Y-112820000D03*
X93977928Y-111270000D03*
D12*
X84547928Y-117730000D03*
X84547928Y-119630000D03*
D16*
X44945000Y-79245000D03*
X43395000Y-79245000D03*
D13*
X71887928Y-118410000D03*
X71887928Y-116510000D03*
D14*
X56300000Y-61875000D03*
X56300000Y-60325000D03*
D11*
X87780000Y-143145000D03*
X87780000Y-144695000D03*
D14*
X88370000Y-133455000D03*
X88370000Y-131905000D03*
D12*
X84455000Y-84870000D03*
X84455000Y-86770000D03*
D15*
X45126464Y-97628822D03*
X43226464Y-97628822D03*
D11*
X69545000Y-85215000D03*
X69545000Y-86765000D03*
D14*
X82367928Y-113335000D03*
X82367928Y-111785000D03*
X57800000Y-136485000D03*
X57800000Y-134935000D03*
X54300000Y-153315000D03*
X54300000Y-151765000D03*
D11*
X69857500Y-170115000D03*
X69857500Y-171665000D03*
D16*
X44970000Y-128615000D03*
X43420000Y-128615000D03*
D11*
X82807928Y-118085000D03*
X82807928Y-119635000D03*
D14*
X67745000Y-78625000D03*
X67745000Y-77075000D03*
D11*
X95570000Y-109245000D03*
X95570000Y-110795000D03*
D14*
X93885000Y-79960000D03*
X93885000Y-78410000D03*
X56320000Y-127845000D03*
X56320000Y-126295000D03*
D11*
X87680000Y-60655000D03*
X87680000Y-62205000D03*
X87681464Y-93838822D03*
X87681464Y-95388822D03*
D13*
X73851464Y-95483822D03*
X73851464Y-93583822D03*
D14*
X72020000Y-127945000D03*
X72020000Y-126395000D03*
X57781464Y-103698822D03*
X57781464Y-102148822D03*
D13*
X73950000Y-144790000D03*
X73950000Y-142890000D03*
D11*
X60429414Y-92038822D03*
X60429414Y-93588822D03*
D13*
X55940000Y-120350000D03*
X55940000Y-118450000D03*
D14*
X88437928Y-116945000D03*
X88437928Y-115395000D03*
X67837928Y-111485000D03*
X67837928Y-109935000D03*
D11*
X82740000Y-134595000D03*
X82740000Y-136145000D03*
X95460000Y-76395000D03*
X95460000Y-77945000D03*
D14*
X88450000Y-149975000D03*
X88450000Y-148425000D03*
X82300000Y-129845000D03*
X82300000Y-128295000D03*
D13*
X80560000Y-64030000D03*
X80560000Y-62130000D03*
D14*
X73650000Y-151415000D03*
X73650000Y-149865000D03*
D13*
X58727950Y-143290000D03*
X58727950Y-141390000D03*
X86540000Y-150290000D03*
X86540000Y-148390000D03*
D11*
X67347500Y-170115000D03*
X67347500Y-171665000D03*
D12*
X67761464Y-101473822D03*
X67761464Y-103373822D03*
D16*
X80120000Y-163560000D03*
X78570000Y-163560000D03*
D15*
X45145000Y-130415000D03*
X43245000Y-130415000D03*
D12*
X85847928Y-110130000D03*
X85847928Y-112030000D03*
D13*
X55995000Y-87500000D03*
X55995000Y-85600000D03*
D11*
X87700000Y-126625000D03*
X87700000Y-128175000D03*
D12*
X67760000Y-68290000D03*
X67760000Y-70190000D03*
D11*
X60515878Y-108315000D03*
X60515878Y-109865000D03*
X69551464Y-101798822D03*
X69551464Y-103348822D03*
X69550000Y-68615000D03*
X69550000Y-70165000D03*
D17*
X79900000Y-162060000D03*
X81450000Y-162060000D03*
D11*
X96400000Y-141965000D03*
X96400000Y-143515000D03*
D12*
X115780000Y-137290000D03*
X115780000Y-139190000D03*
D14*
X54201464Y-104008822D03*
X54201464Y-102458822D03*
D11*
X82820000Y-151115000D03*
X82820000Y-152665000D03*
X82720000Y-68625000D03*
X82720000Y-70175000D03*
D14*
X82380000Y-146365000D03*
X82380000Y-144815000D03*
D13*
X69495000Y-78950000D03*
X69495000Y-77050000D03*
D14*
X56295000Y-78475000D03*
X56295000Y-76925000D03*
D13*
X73937928Y-111760000D03*
X73937928Y-109860000D03*
D14*
X72000000Y-61975000D03*
X72000000Y-60425000D03*
D11*
X114770000Y-130255000D03*
X114770000Y-131805000D03*
D16*
X47920000Y-75445000D03*
X46370000Y-75445000D03*
X47945000Y-124815000D03*
X46395000Y-124815000D03*
D11*
X82715000Y-85225000D03*
X82715000Y-86775000D03*
D15*
X48120000Y-77445000D03*
X46220000Y-77445000D03*
D14*
X115610000Y-119765000D03*
X115610000Y-118215000D03*
X88351464Y-100668822D03*
X88351464Y-99118822D03*
X73637928Y-118385000D03*
X73637928Y-116835000D03*
X88350000Y-67485000D03*
X88350000Y-65935000D03*
D13*
X80647928Y-113490000D03*
X80647928Y-111590000D03*
X86440000Y-67800000D03*
X86440000Y-65900000D03*
D16*
X48012928Y-108305000D03*
X46462928Y-108305000D03*
D11*
X115860000Y-126395000D03*
X115860000Y-127945000D03*
D12*
X67780000Y-134260000D03*
X67780000Y-136160000D03*
D14*
X73551464Y-102108822D03*
X73551464Y-100558822D03*
X54195000Y-87425000D03*
X54195000Y-85875000D03*
D13*
X80561464Y-97213822D03*
X80561464Y-95313822D03*
D14*
X94020000Y-145775000D03*
X94020000Y-144225000D03*
D13*
X80660000Y-146520000D03*
X80660000Y-144620000D03*
X69520000Y-128320000D03*
X69520000Y-126420000D03*
X73850000Y-62300000D03*
X73850000Y-60400000D03*
D11*
X69650000Y-151105000D03*
X69650000Y-152655000D03*
D15*
X45125000Y-64445000D03*
X43225000Y-64445000D03*
D12*
X85761464Y-93853822D03*
X85761464Y-95753822D03*
D16*
X45050000Y-145135000D03*
X43500000Y-145135000D03*
D14*
X93890000Y-63360000D03*
X93890000Y-61810000D03*
D15*
X48126464Y-94028822D03*
X46226464Y-94028822D03*
D13*
X80580000Y-130000000D03*
X80580000Y-128100000D03*
D14*
X54200000Y-70825000D03*
X54200000Y-69275000D03*
D12*
X85755000Y-77270000D03*
X85755000Y-79170000D03*
D11*
X60527950Y-141345000D03*
X60527950Y-142895000D03*
D15*
X48125000Y-60845000D03*
X46225000Y-60845000D03*
D13*
X54500000Y-61950000D03*
X54500000Y-60050000D03*
D15*
X45120000Y-81045000D03*
X43220000Y-81045000D03*
D11*
X69570000Y-134585000D03*
X69570000Y-136135000D03*
D13*
X80555000Y-80630000D03*
X80555000Y-78730000D03*
D14*
X73545000Y-85525000D03*
X73545000Y-83975000D03*
X54220000Y-136795000D03*
X54220000Y-135245000D03*
D13*
X59995000Y-87450000D03*
X59995000Y-85550000D03*
X56020000Y-136870000D03*
X56020000Y-134970000D03*
D12*
X67847928Y-117750000D03*
X67847928Y-119650000D03*
D14*
X72087928Y-111435000D03*
X72087928Y-109885000D03*
D16*
X44951464Y-95828822D03*
X43401464Y-95828822D03*
D13*
X69600000Y-144840000D03*
X69600000Y-142940000D03*
D12*
X114050000Y-126250000D03*
X114050000Y-128150000D03*
D13*
X73845000Y-78900000D03*
X73845000Y-77000000D03*
D14*
X82275000Y-80475000D03*
X82275000Y-78925000D03*
D13*
X73870000Y-128270000D03*
X73870000Y-126370000D03*
X58715878Y-110260000D03*
X58715878Y-108360000D03*
X113780000Y-119960000D03*
X113780000Y-118060000D03*
X54495000Y-78550000D03*
X54495000Y-76650000D03*
D11*
X60447950Y-124825000D03*
X60447950Y-126375000D03*
D12*
X112030000Y-126230000D03*
X112030000Y-128130000D03*
D13*
X58629414Y-93983822D03*
X58629414Y-92083822D03*
D16*
X48025000Y-141335000D03*
X46475000Y-141335000D03*
D14*
X93891464Y-96543822D03*
X93891464Y-94993822D03*
X73550000Y-68925000D03*
X73550000Y-67375000D03*
D11*
X82721464Y-101808822D03*
X82721464Y-103358822D03*
D14*
X56301464Y-95058822D03*
X56301464Y-93508822D03*
D11*
X87675000Y-77255000D03*
X87675000Y-78805000D03*
D13*
X71800000Y-68950000D03*
X71800000Y-67050000D03*
X58622950Y-77400000D03*
X58622950Y-75500000D03*
D14*
X57775000Y-87115000D03*
X57775000Y-85565000D03*
X56400000Y-144365000D03*
X56400000Y-142815000D03*
D13*
X58647950Y-126770000D03*
X58647950Y-124870000D03*
D12*
X85760000Y-60670000D03*
X85760000Y-62570000D03*
D16*
X47925000Y-58845000D03*
X46375000Y-58845000D03*
D13*
X86441464Y-100983822D03*
X86441464Y-99083822D03*
D12*
X67860000Y-150780000D03*
X67860000Y-152680000D03*
D13*
X56001464Y-104083822D03*
X56001464Y-102183822D03*
X54600000Y-144440000D03*
X54600000Y-142540000D03*
D12*
X84460000Y-68270000D03*
X84460000Y-70170000D03*
D13*
X69501464Y-95533822D03*
X69501464Y-93633822D03*
X56000000Y-70900000D03*
X56000000Y-69000000D03*
X60020000Y-136820000D03*
X60020000Y-134920000D03*
X56100000Y-153390000D03*
X56100000Y-151490000D03*
D12*
X85860000Y-143160000D03*
X85860000Y-145060000D03*
M02*
